<mxfile host="Electron" agent="Mozilla/5.0 (X11; Linux x86_64) AppleWebKit/537.36 (KHTML, like Gecko) draw.io/28.0.6 Chrome/138.0.7204.100 Electron/37.2.3 Safari/537.36" version="28.0.6">
  <diagram id="C5RBs43oDa-KdzZeNtuy" name="create-category">
    <mxGraphModel dx="2253" dy="2030" grid="1" gridSize="10" guides="1" tooltips="1" connect="1" arrows="1" fold="1" page="1" pageScale="1" pageWidth="827" pageHeight="1169" math="0" shadow="0">
      <root>
        <mxCell id="WIyWlLk6GJQsqaUBKTNV-0" />
        <mxCell id="WIyWlLk6GJQsqaUBKTNV-1" parent="WIyWlLk6GJQsqaUBKTNV-0" />
        <mxCell id="WIyWlLk6GJQsqaUBKTNV-2" value="" style="rounded=0;html=1;jettySize=auto;orthogonalLoop=1;fontSize=11;endArrow=block;endFill=0;endSize=8;strokeWidth=1;shadow=0;labelBackgroundColor=none;edgeStyle=orthogonalEdgeStyle;" parent="WIyWlLk6GJQsqaUBKTNV-1" source="WIyWlLk6GJQsqaUBKTNV-3" target="WIyWlLk6GJQsqaUBKTNV-6" edge="1">
          <mxGeometry relative="1" as="geometry" />
        </mxCell>
        <mxCell id="k7IrvAcoIWXZrxDGukcp-76" style="edgeStyle=none;curved=1;rounded=0;orthogonalLoop=1;jettySize=auto;html=1;fontSize=12;startSize=8;endSize=8;" parent="WIyWlLk6GJQsqaUBKTNV-1" source="WIyWlLk6GJQsqaUBKTNV-3" edge="1">
          <mxGeometry relative="1" as="geometry">
            <mxPoint x="10" y="-80" as="targetPoint" />
          </mxGeometry>
        </mxCell>
        <mxCell id="WIyWlLk6GJQsqaUBKTNV-3" value="get slug, description, label, meta&amp;nbsp;&lt;div&gt;from request and validate&lt;/div&gt;" style="rounded=1;whiteSpace=wrap;html=1;fontSize=12;glass=0;strokeWidth=1;shadow=0;" parent="WIyWlLk6GJQsqaUBKTNV-1" vertex="1">
          <mxGeometry x="-315" y="-135" width="250" height="110" as="geometry" />
        </mxCell>
        <mxCell id="WIyWlLk6GJQsqaUBKTNV-5" value="yes" style="edgeStyle=orthogonalEdgeStyle;rounded=0;html=1;jettySize=auto;orthogonalLoop=1;fontSize=11;endArrow=block;endFill=0;endSize=8;strokeWidth=1;shadow=0;labelBackgroundColor=none;" parent="WIyWlLk6GJQsqaUBKTNV-1" source="WIyWlLk6GJQsqaUBKTNV-6" target="WIyWlLk6GJQsqaUBKTNV-7" edge="1">
          <mxGeometry y="10" relative="1" as="geometry">
            <mxPoint as="offset" />
          </mxGeometry>
        </mxCell>
        <mxCell id="iimxKHolQluQC7mrGDLt-0" style="edgeStyle=none;curved=1;rounded=0;orthogonalLoop=1;jettySize=auto;html=1;fontSize=12;startSize=8;endSize=8;" parent="WIyWlLk6GJQsqaUBKTNV-1" source="WIyWlLk6GJQsqaUBKTNV-6" edge="1">
          <mxGeometry relative="1" as="geometry">
            <mxPoint x="-190" y="175" as="targetPoint" />
          </mxGeometry>
        </mxCell>
        <mxCell id="WIyWlLk6GJQsqaUBKTNV-6" value="validation err?" style="rhombus;whiteSpace=wrap;html=1;shadow=0;fontFamily=Helvetica;fontSize=12;align=center;strokeWidth=1;spacing=6;spacingTop=-4;" parent="WIyWlLk6GJQsqaUBKTNV-1" vertex="1">
          <mxGeometry x="-240" y="55" width="100" height="80" as="geometry" />
        </mxCell>
        <mxCell id="WIyWlLk6GJQsqaUBKTNV-7" value="send error&lt;div&gt;status 400&lt;/div&gt;" style="rounded=1;whiteSpace=wrap;html=1;fontSize=12;glass=0;strokeWidth=1;shadow=0;" parent="WIyWlLk6GJQsqaUBKTNV-1" vertex="1">
          <mxGeometry x="-90" y="75" width="120" height="40" as="geometry" />
        </mxCell>
        <mxCell id="iimxKHolQluQC7mrGDLt-4" style="edgeStyle=none;curved=1;rounded=0;orthogonalLoop=1;jettySize=auto;html=1;fontSize=12;startSize=8;endSize=8;" parent="WIyWlLk6GJQsqaUBKTNV-1" source="iimxKHolQluQC7mrGDLt-2" edge="1">
          <mxGeometry relative="1" as="geometry">
            <mxPoint x="-370" y="205" as="targetPoint" />
          </mxGeometry>
        </mxCell>
        <mxCell id="iimxKHolQluQC7mrGDLt-6" style="edgeStyle=none;curved=1;rounded=0;orthogonalLoop=1;jettySize=auto;html=1;fontSize=12;startSize=8;endSize=8;" parent="WIyWlLk6GJQsqaUBKTNV-1" source="iimxKHolQluQC7mrGDLt-2" edge="1">
          <mxGeometry relative="1" as="geometry">
            <mxPoint x="-190" y="285" as="targetPoint" />
          </mxGeometry>
        </mxCell>
        <mxCell id="iimxKHolQluQC7mrGDLt-2" value="check in slug key to find&lt;div&gt;if the slug is there using&lt;/div&gt;&lt;div&gt;SISMEMBER&lt;/div&gt;" style="rounded=1;whiteSpace=wrap;html=1;" parent="WIyWlLk6GJQsqaUBKTNV-1" vertex="1">
          <mxGeometry x="-272.5" y="175" width="165" height="60" as="geometry" />
        </mxCell>
        <mxCell id="iimxKHolQluQC7mrGDLt-3" value="" style="image;sketch=0;aspect=fixed;html=1;points=[];align=center;fontSize=12;image=img/lib/mscae/Cache_Redis_Product.svg;" parent="WIyWlLk6GJQsqaUBKTNV-1" vertex="1">
          <mxGeometry x="-425" y="183" width="50" height="42" as="geometry" />
        </mxCell>
        <mxCell id="iimxKHolQluQC7mrGDLt-5" value="key: category#slugs &amp;lt;slug&amp;gt;" style="text;html=1;align=center;verticalAlign=middle;whiteSpace=wrap;rounded=0;" parent="WIyWlLk6GJQsqaUBKTNV-1" vertex="1">
          <mxGeometry x="-505" y="225" width="205" height="30" as="geometry" />
        </mxCell>
        <mxCell id="iimxKHolQluQC7mrGDLt-28" style="edgeStyle=none;curved=1;rounded=0;orthogonalLoop=1;jettySize=auto;html=1;fontSize=12;startSize=8;endSize=8;" parent="WIyWlLk6GJQsqaUBKTNV-1" source="iimxKHolQluQC7mrGDLt-8" edge="1">
          <mxGeometry relative="1" as="geometry">
            <mxPoint x="-300" y="325" as="targetPoint" />
          </mxGeometry>
        </mxCell>
        <mxCell id="k7IrvAcoIWXZrxDGukcp-1" style="edgeStyle=none;curved=1;rounded=0;orthogonalLoop=1;jettySize=auto;html=1;fontSize=12;startSize=8;endSize=8;" parent="WIyWlLk6GJQsqaUBKTNV-1" source="iimxKHolQluQC7mrGDLt-8" edge="1">
          <mxGeometry relative="1" as="geometry">
            <mxPoint x="-80" y="325" as="targetPoint" />
          </mxGeometry>
        </mxCell>
        <mxCell id="iimxKHolQluQC7mrGDLt-8" value="exist slug?" style="rhombus;whiteSpace=wrap;html=1;" parent="WIyWlLk6GJQsqaUBKTNV-1" vertex="1">
          <mxGeometry x="-230" y="285" width="80" height="80" as="geometry" />
        </mxCell>
        <mxCell id="iimxKHolQluQC7mrGDLt-11" value="no" style="text;html=1;align=center;verticalAlign=middle;whiteSpace=wrap;rounded=0;" parent="WIyWlLk6GJQsqaUBKTNV-1" vertex="1">
          <mxGeometry x="-200" y="145" width="60" height="30" as="geometry" />
        </mxCell>
        <mxCell id="iimxKHolQluQC7mrGDLt-14" value="" style="shape=image;verticalLabelPosition=bottom;labelBackgroundColor=default;verticalAlign=top;aspect=fixed;imageAspect=0;image=data:image/png,iVBORw0KGgoAAAANSUhEUgAAAPcAAAICCAIAAACcLsyHAAAQAElEQVR4AeydB3hVRbeGSegJJaGDoIDSFEGKNOm9SwfpnQsivYYOAgEpSknovUjvvYkUUZqISJUiHRJCCSD9vmR0/9tTd5KT5JyTdZ5155+9Zs3smW++WXvNxDt4tvpmVb7/CxARBNwJgf6ztgQFBd2/fz80NPTJkyeev/55O478BAH3QmDrkUsnLt15HfZ78+aNp3uNTkYjCPyDwImLdyE5FOdZWA4IIu6JABRXIix3zwmWUYGAojipsBw0YlTk5VGDAORWQvPCckAQcXMEhOVuPsGxeXj4cjX82MjyDCmTFsyewaIoUCR1MwRcj+VflPl438Q29Up+FLGZgNwbv246tHlZc5nR/XMkYs1KLWdGwJEsL5IrY6eahaJ6tK/fvLl06772MQrv6wpkf2f9T2eqD1xkUVgD4W1Q7J0fAdssD1//W1XKX69EBF2s8Tct++H35mNWrdr3h/Eq5pYdqn+KmOtF45YI2GF5/Hie/1f90yV+9Q9823Z+nzpFc2UChRpFcsztXXvfxLY7xrSY3LlazkypUE79qvqnOd7xSZLoWGDHHWNaokGIK+b1rkOAEdi1RtEPM6FBmlf4hJjh8NT/w1JJ/mwZ0Nct8eHsnrUwntOrdp3iH6JButUpik2ud1N/16nqL1M6pEuRRGm0j4b5KxLGj9ez/mdLB9T/aVL7xf3rtaqUj3ZMZMNPZ6ZvPGyilEd3RcAOy/3bVmxfrWA8T4/dv17KnNYnJPQpQKRK7hX69Pnag6dvhzz+7KN3u9QuivLPG/dIn714uXj3b6v2nSLfunJ+vy9KeiWK/92aQymTJp7YsconH6T/OEtaaPro6bOvF/9w+VYIZlPW/fzrhZvtqhYY0LhUlnS+u45fTOebZGCTUmgoVUK4nPPdVGeuBt29/0RpVGrxFVUKZWtSNo9HHI+V+05dC3rokySxMtanbEARvUbyboyALZYn905UKk9miNvymzWD5u0q1XMOPAOLuduOfzVl0/gVB/rN3s7ju2mSk07fdIT06bOX6KeFucnKBT9AM2rpjyt/PLVg54kE8eJWKvhB3qzpUO47eWXdwTMH/rhK/uGTZ4Ta1QrnIN9n5rahC/YMnr+L/OfFcpEquXnvUaOvVxCovHr9WmlUavEVz56/pDRBPM9zV4PGLT8wcdVBHs1FWG6OibtqbLE8fcqknh4et0MeP3n2Qht/4oTxe9QttqBPnYPftVs/vAl6ohpSc/FN6oVyTs9ahBzDW5Qlj0e/HvSQTPZ3UpJmy5CC9PdLb/+jyKReCcjjeknPXQsm9UmSiFTJ3t8uq8+IetRSi6/Ycvj8nK3H0qVIOqxF2fUjGmvBj1aLzJFzNxAySmA8YTpfLfUoqZshYIvld++HMtqUyRLDdTJKCMqbls+bzDtR4IZfhszfrZSk6tDDw4PsP3L3wWNy3yzf33PaViULdvwKX3/642rJPJmhPuH47C1H1fch+MHbUISIhSofhK2BoDANj4hqnIyJWHwFNkRBVfwWEDsRo3eoXhCNidQsmhPRlEObl+1QrSAajl80pVNkpBOOQMAWy4MfPv3t4m3vRAnYOw5qWprdZ5VPs8X1fEvkl69e333wpHCujFof8PePnjwjyMGDDmlWBv22IxdI65f8KH/2DIgyTuqVME/WtBeuB/9y5trq/X9cvn0/mVdCzJbt/Z2U0JyN49Dmb6tTisa2WHxF47J5xrWvVKHABw9C/37zxkIDGVImg82ISRnenXjJRCmPboCALZYzvFFL9/5x5S6HJ7U/y5UxdbKbIaHsDtFkTe87omU5gpmDp/7CTAm7TIJsnL06Tpm//fj3e06m9knCXhBByUpInDDe1TsPPngnZaGcGRuUyk0jS/zqU33Vvj8mrTmUMH5cLL0TxZ+x6QiOH71tsfiKq3cf5MuWno0v5zDnrgcNnve/Dw6tcbrCoTiHPHpBA8XbT1yHgYj7IWCH5YTITf1X5u8YiJTrPe/XCzfv3H+sNJ9+OW3y2kOdp2yq1G+BwgXvW7rnHCwr9/9HM3b5/hLdZ6FBPh+85OLNkIAuNVIm9yrTay6awl9N//XPWxlSJuULQAvzth+v0Hc+el6k9q8ov139E5qA9b+QV2KiMX8FW1taoBbyxcgVP5+5piqq9EbwI/4eNHTBbr2gEYorfNwytcNyh4+ZcMcrYfyyn2QpkzcLf0LKnjElQdGDx387/EU2GoToeG69oLFhL0WujkB0s5yDxfuhfxPlj2xdnrNC/pDZNWCzq4Mo/XdyBCLD8ogM7fDZ6zUGLSaWKNZ1ZqORyyevPRTNjjwinZY6Lo5AdLPcxeGS7rskAsJyl5w26XS4EBCWhwsuMXZJBITlLjlt0ulwISAsDxdcTmYs3TGGgLDcGE5i5coICMtdefak78YQEJYbw0msXBkBz2//r4KIIOB+CFT59H1tYXrmy5pWRBBwPwTS+rz9f+JRRI+6iEW1L6kgEPMICMtjfg6kB1GNgLA8qhGW9mMeAWF5zM+B9CCqERCWRzXC0n7MIyAsj/k5iKoeOHG7oaGhQZH4hYSEPHjwwPj4hOXGsRJLxyDwd9gvMm29evXqRdjPYCNRy/KbN28eO3bMWldUKQYmYs1e9O6BwOv/XpAW4UHBc4N17bD8m2++qVGjxpUrV0yaW7BgQbFixUhN9NojxMWgc+fOc+bMqVu37uzZs7UilaEIGWnphz3VlZmk7o3A6dOn9+3bpx8jGmIZNKRr1qwhJa+EIkTlw5XaYXmiRInefffdcLWIMRyFwVOmTFm1atWAsN/x48dRUqQJj8oAGxNJnz798ePHNUvJuDECZ86cmTlzpp67+/fvv3v3LkMmheX6NYAxQlF4xQ7Lv/rqq6lTp7733nvhanfLli1wO3/+/NSC7vjr1q1b49R5NBHctomGR1hOKuJABHbu3Dlq1KgnT95e02ej2d27d588edKGQVQUlShRAqLrfbb2lly5csFyi0WajZGMHZZ36dKFwEMtNXa1ffv2LV++fP/+/VlnNlrHTyuKY1O1alUoDnGJwnn8V/75X7z4Pzn5n6hEIG3atBkzZkyc2MIl1/rXwvKrV99eRKxXRnU+Z86cEB02m78oVapUFLEGzIvCpbHDcn1bX3/9NV155513vL29N2zYoC/S56G4ntBt2rSpVq0aSoiuN1P5TZs2qYykUYfA+PHjFy9e/Mcff3C2od5CrDh16tSAgICBAwcuXbr0zZs3f/75Z79+/V6+fPnjjz+SOXDgAJb4/uXLlw8bNowWmEE0yPbt22EC32eKxo4de/nyZYtm7OhmzZrFKwYNGoQlr6CuNYHKUMuiz65duzYulVJrdY3ojbL86dOnjNzLy4uFBTRNmry909n8BWBBiAKIJpwmhsmXz/TfhGAxmJiZNyiayCNQv379IkWKmLTDkXOzZs3atWt34sQJmJohQ4YWLVpgU7hw4bZt2+bOnZv8unXrgoODO3XqVKFCBZiKm799+zb+vk6dOtWrV2euW7ZsmTlzZnMz6iI0W7RoUVjO1s7DwwONRYHcms8mb25DJwnWLRaZG1vUGGW5egdYJEjw9qJxPn/mzTFsRXEVrvCIq+Z0RQXfOHWTKlBcWWp6jBHYny7d28v8Nb1kIoMAJINGJi0wg0mTJk2ZMiV6nCXBDGbkmeIPPvggefK3//IC7p/jNRz5kiVLKIK1pEjq1KlVxYQJ395XbM0sa9asuDYIY77GaMREbPhsonOiGty5+ShMGtE/Pn78ZOn3axcvWb1w0UqjLFcvgH981Gjr1q1bpCbCwQhUVsSFrDD+119/xQbXjpAxF2w0JauCWggZ1YhWJJkoQsDD462L1R9gm4QWBQoUwLUryZMnD/E9awDeT5s2rWLFimox0DcTMzQI/CY1Ln5+flBZ+VOTWqwBa0Umltqjt7fXF41qNWlcp1nTekZZzlr/5JNPHj9+DI9HjBgxd+5crTnzDEzdvHnzgLAf9vhscxulsch+lDaqqIqSRhYBs/qEo8wyAfqFCxd++uknyj/88MPz58/Hjx8fr3/p0iUM/vrrL7w7pCdWKVjwn3/+wNyMuhEQPCkBujrqMK9OEQeL5nojGqMsp61u3bqxdhk2HtrPzw+NuUBu3DMpRytsOs0NNA2lWBLMaMIj5Ibi4sg1lBySwStt3LiRpthHHjxo+V9ZotTDw4No++LFi8Qn6otdq1at7Nmzz5gxY+LEiY8ePcLAx8eHlcC2EuFoUh2RmZvRmkEhFEE0Y3w2QkSEhrR48eJklKAnQNcbK72R1A7LJ02aBC4ERrTFgNlE8sjYKleuTKZ58+boNYHZuG/ODUlx4ZreYgYbE4HftCwUtwhXZJTs//z//RUrVoymcCg4YzLe3t6UaHEzgQfGgwcPxnFSCqHr1avHcQo27DjjxYu3d+9egpaOHTsyd6VKlVJ+19yMur17927atCkZ2wK1EL0NbMapoyE1KaJXJhrMjIgdlhtpQrPBE8NRJZrSRkZZ6lMbxlLkDAhw9nLt2rXAwMAJEyYQw0D9CPSKECgCtcyreHoaZa9RO/N3iCYWIpAlS5YhQ4bg2kk5YSQijwAIsDNRov/9A4ARaIEqLBXjjQjLQUwkWhGIGzdukiRJCEgiI2wRjXfaOVluvP9iKQjYR0BYbh8jsXB1BITlrj6D0n/7CAjL7WMkFq6OgLDc1WdQ+m8fAWG5fYxio4V7jVlY7l7zKaOxhICw3BIqonMvBITl7jWfMpp/EeAvrP9m4wjLNSgk41YI6P+jeWG5W02tDMYiAq7IcosDEaUgYBUBYblVaKTAbRAQlrvNVMpArCIgLLcKjRS4DQLCcreZSlcaiNxf7kqzFUv7Grlh/x32i0wbznV/ue2R3L59+zcrP9sVpdSlEdCfZEdmIA67vzwyndDXHTRo0A8//KDXQO9WrVpNtPTr168far2x5N0VgdPOcH95eMGdNGnStm3bjNQ6efJkhQoV5lr5sQaMNCI2ro7AGWe4vzy8IBYvXjxcN2bgsy0SmmAmvK8W+5hFIDAw8Ny5c+Z9uHnzpsWr6zXLEjF+f7lJpFGnTp27Yf9OgDX9zp07f/31VzWAjRs3duzY0c/Pb/bs2dZCscaNG+fJk0fZS+rSCFSvXj1jxowWh6D/D6fMDXI61f3l5v2zoTl06NCmTZvGjx8/atSo/PnzH7fyL6jgsxEb7YS/SGo4DIFFixZduHBBNUcsev/+fSYLn600p06dWr58OfmHDx+iJPa8ceMGj0r++OOPgIAAvDihqdLYSHHn1i77rB2d95fb6KLFIvaa1apV8/LyojRfvnxZs2YlY1EAzqJelK6CQLJkyfhoZ86cWeswcwprW7Zs2bp16yf2/pmXoKCgVP/+mxPktUa0TLt27aLp/nLtlQYzISEh+nthfH19LVYkXEG0ImL0xYsXL1ny9rZsTSmZmELA5JZnumEt8qRIL5cuXcqUKZPycTly5NAXWcvb8Nns9IhqWDYs8QNz0AAAEABJREFUBmvVbevt/O2TiEobWNhZ/t+qOWt6VUoKrVnQZJTwsVMZkxRO79ixQ1PCb6Xh+EVTSiamENDPMn+IoRtx48bVqK8RA72JUPH58+dKqSqqvO2ULRxUtujOWQPWimy3qUrtsDxdunSE1Go87CZVHVJreoqUfPrpp9BXfa1o4c8//1R6fcoyaNKkiTmh8e7du3fXW0o+RhDAd6qJ48hBkQ/nFRwc/PjxY/pD5E1qUbJnz84R4bNnz1gSR48etWhjruR1BOicoJsXoaEoqu4vZw2xpWjRokWfPn08PDy02Muant4oKV269Lvvvtu0adMBAwbs2rWrbNmySq+lH3/8MSznD0N6IWKB4v7+/pqZZGIQASbx4sWL7CxxWGnTpn358mX8+PE5S2FbybkZDhsN3btz5w42ly9f3rBhA4dsceLE8fHxwWzWrFkcP8Bdza9jbCKEIoimhFdI6tSp0ZByME1GCXoCdL2x0htJ7ftyOrpw4cKxY8fWrVuX4fFu2sWXW9SzGGrWrIkBnzb4vXr16pEjR/YK+wEZek0Um/HZemGfLhTXIIrxTMKECb/88kt2lhz4dunSBb7SJc4Sevfu3aZNm/r166NHkyZNGmwGDx7MVJYvXx4Nkjt3buoy8xxCtG/fHo1FIeZG9EWwWb2I1KQId26i0Ve0kbfDchs1I1+Ee4DrekET+WalBSdHgA+CQ3rIx8RgOzHJcoNdFDM3QwB2Gr963NrYWSrGGxGWW4NR9FGFANGs3F8eVeBKu7EWgdjmy2PtRMfqgQvLY/X0x5LBC8tjyUTH6mEKy2P19MeSwQvLY8lEx+phCstj9fTHwOBj4pXC8phAXd4ZvQgIy6MXb3lbdCHAX1i1VwnLNSgk41YIqP9cXA1JWK5wkNSdERCWu/PsytgUAsJyhYNKJXVPBITl7jmvMio9AsJyPRqSd08EhOXuOa9OPiq5v9zJJ0i6F1kE9FeeRKytV69evQj7GaweM778Nys/g50WM5dGQH+SbTqQ8DzDc4Pm4Wb51q1bR40aZbB1i2atrFxbPnHiRIosVhGluyJw2hXvL7c7GTjx27dvz7XyozoGpCKxBIEzrnh/uZG5SZs2LUTHcxsxFhunQuDZs2ejR492bJdKxPj95T/++OOIESP6hP0OHTqkHx7fGv1tMitXrvz2228xePPmDQxu27ZtkyZNqlatWqdOnbVr16LXC0TvLnfE6RFxnXzcuHEd29mcMXt/+cuXL+ErDB87dqyfn1+2bNmMDO/48eNnz5797rvv5s+fzzKtWbNmrVq1TCriy3foLgE1KZVHByKAM1ry7x3Cjx49mjx5Mo0HBQURMwYEBEyfPl27oXzPnj1r1qxZuHDhrFmztmzZghkOi2maOnXqhAkTUN6/fx8lsnfv3sDAwEmTJoWEhPBosDUsrQk8sXbZZ+2ovr+cVZssWbKdO3cyWh8fn5QpU1rrpV4PatmzZ/f29o4XL16ePHmuX7+uL3XlvEv2HU/JFDx9+pTeX7p0iakh4+vrW6NGjU6dOrHd37x5M6fXKJHLly83aNCA77C67u+nn366d+8ej3x4qQgNsIHr6dOn79ixY44cOX755Rc0BlvD0qKwSFLF4P3lHh4eLH3G2bx5c85V7ob9WysWO6pX4vLPnz8PrBwYsZW0eLEdEYv+qltc++Kwn74dyTsEASYxb968fGBpjZgzf/78ZJiaw4cPz5s3D/9N/tatWygRiJswYUIyiRMnJj116lTBggXR0EjJkiVhM0ocH4wn88477/BxIEMLRlrD0obY8NlQiLWKs2cx2GjBRpGdk0SG1KxZM75u6dKlmzFjhr4hT09PhqdpHjx4oPL58uWjT93CfmnSpCFiUXp9CvuJhTQNn4swki9Gg/snFXEgAkWKFDly5AhUZsrUZa5r167lY8vMVqpUKXPmzNrBM19v/Xt55O8veg15GiFFoL4igMHWqGJbiIqhMq7d3Iw1YK3I3NhcY4vlxOXqTl5iD4irFq7WBLy/c+fOX3/9hYZP3g8//EAGefz4MSsbEhO3tWnThrooTQQq8xE0UeLgzZUmNvIYAQRwVV5eXuvXry9VqpSqfuPGjdy5c0PiJ0+eELgrpXnKpOOA+CxTxPeZAxYy5mKwNfOKJhpcNQG6tf5QxLbBpIrBR1ssZ4l37dq1RYsWffv2Zb1yWqJvNHny5E2bNu3RowfUZHeibTFZ/Ui9evU4YKHulClT+IuuVhEqkycc1AuOHD3twH5KRRyOQKFChfjYEkyqlitXrgzp+TgTlCdNmlQpzdOiRYtShU0qxw9EO8pzm5sZbM28IhoWEkJGCT4bUR8c0ui4v5zgjK30/Pnzx4wZwzhBiq4wJL4sZBB2Khwg4rYHDx5ct25dghSUw4YNa9y4McsOBGfPns3Why05eiWw2d/fH0LrBQ1BkVBcQRQVKdj27t1ba5n4u2XLlhwE44w6d+5M4EtRmTJlKlWqREYTYhK2Tz179uScjfAGPhCjk1cGH330EQQgb7A1LM2FVyN6PSzHqaMhNSkqUaKEiQYzI2LLlxupb2LDNvzPP//87LPPgIMiQhriHLbk5DWB6IBuIlqpZNwegfjx4ztkjNoOwW5rDmY5q5+1Pm3aNDx669ate/XqVbFiRQhttx9iEHsQgJ3Grx63BgtLxXgjDmY5fSpWrBghzZAhQ+bMmcPfIyyesWAmEmsRYNcr95fH2tmXgUcVAo735VHVU2lXEIgoAsLyiCJnWk+enRcBYbnzzo30zFEICMsdhaS047wICMudd26kZ45CQFjuKCSlHedFQFjuvHMjPQsfAtatheXWsZESV0aAv7Bq3ReWa1BIxq0Q0P8XlMJyt5paGYxFBITlFmERpVshICx3q+mUwVhEQFhuERaHK6XBmERAWB6T6Mu7owcBYXn04Cxv+Q8CoaGhQZH4hYSEPHjwz50R/2nXyoOw3Aowoo4yBP4O+0Wm+VcucX+5foS3b9/+zcpPbyZ5t0FAf5IdmUG9ePHCYHU7vvybb75Zv369tbZu3LjRqFEja6Xm+ubNm1++fFmvh96trFxn3q9fv8WL395DpLeXvJshcDra7i+PQeB27drVvXv3uZZ+6E+ePBmDfZNXRwMCbnt/uR47whUe8dk4dTIiTo7AM7e8v1wDnRhoypQp+NdOnTp9/fXX9+7dU0UJEyYMCAho1qxZgwYNZs2apYVcFy5cGDlyZM+ePYcPH24SpaiK+rRJkyZym4UeEGfOx3Wz+8v1WMePH79YsWITJ06cPHlyvHjxtGD97t27yZIlQzl27Nhr164tW7aMWg8fPvTz86tater48eMrVarUv39/ddceRRZlx44dyqlbLBVlZBAg8F0i95cbR1BdCsxS/uSTTzRSenp6NmzY0MfHJ3PmzOxE9+zZEydOnP379+fIkSNfvnzkCxcunDp1arsRdtq0aTEWcTgCOXPmvH79uvIycn+5HXg54ty0adPUqVPnzZt3+PDhN2/eqAqJEyfGzat88uTJOeknHxwcfPToUXy5EqIX22f4JuEKrp1I/ffff4811AezqBIPDw+5v9zOSaKGPUH51atXW7du3bJly4IFC2r6x48fv3z5Uj1CZZw6eV9f39KlS2/W/SpUqIDemhAIaR8HbHiE5XA9d+7cPIpEEgG5v9woy8+ePVuoUCE8NzG3dlW5Qn/t2rVk2HeuXr26QIEC5IlS8OXHjh0jj/C55I9VZKyJv7+/udtmYSDWqojeOAJsnOT+ckNwtWnTZsaMGT169Ojbt2/58uW1OgTft27d6tChA8cv6dKl4+8+FBGIDxw4kLNwQnaClkGDBlljebly5dgb8YchvdAC/KZBMiIOQQAPxZc227///lllub9cD2vv3r3VdZ589aZNmzZhwoTAwEAoyB8mMcuQIQPHhZ07d54+ffp3331HPKNd+f7xxx9TlyMXwpZx48YlSJAA+wULFrBJJaMJTeHIIbRe+BsRj5qNZCKPADsfpkNrh7MBIk+5v1wDJMozxCrMgV7QRPlb5QUxh4B2XBHJLnC+Z7AF+3G5wYbETBAwiADsTJQokUFja2YsFeONCMutwSj6qEKAP7nI/eVRBa60G2sREF8ea6c+Fg1cWB6LJjvWDlVY7vxTLz2MLALC8sgiKPWdHwFhufPPkfQwsggIyyOLoNR3fgSE5c4/R9LDyCIgLI8sglLfORHgL6xaxyLLcq0hyQgCToXA69evtf4IyzUoJOO2CAjL3XZqZWAaAsJyDQrJuC0CwnK3nVoZmIaAsFyDwkUz0m37CAjL7WMkFq6OgLDc1WdQ+m8fgVjK8ttWLk1Hbx8zsXA1BMLH8s8//1y7B9TVRvq//u7YsaNfv34TLf1atWpF6f9MJecWCISP5VEx5EmTJm3bts12y+r6RWXz5ZdfXrlyReUjlu7atatx48ZzLf26d+9OacSalVpOi0DUstzIsIsXL54rVy4bllevXt26datmUL16dYdcZYE7l/hEQzU6MyEhIQcPHozYG48cOXLnzp3w1rXD8pcvXwYGBnbs2HHo0KGbNm2KHz++esHr16+///77Pn36dO3adfny5epy0AsXLvj7+/fv3x+PuHLlSmV569atcePGNWrUqFq1ajt37kTZrFmzixcvUhfN06dPUf7666/ooXJAQACvw9G2bt1aRQ5Q/Ntvv8W+b9++eH3MlixZQptkEMAaMGBAw4YNv/7663PnzqFBxo4du3r16gkTJtSvX79Lly6qHfQmQlcdslpMmpVHuwhAUybUrplFg59//lmRzWKpNaUdlvNVDw0NDQgIgOXBwcFPnjxRDS1duvTkyZOjwn4nTpxQnJ4xY0blypVHjx79zTfffPrpp1hSpVevXsWKFaMdmFe4cGGUCEz94osvNm7cmDhxYh412b59e+7cuWfPnt2tW7dly5b9/vvvmTJlqlOnTtasWceMGQNlNUsy+/fvnz9/foMGDebNm1e2bNnBgwdrkcy6detKlSq1YMEC4uypU6eyVrE3kcXyjxaZIBItj3v37mXeL1++jDvbsmWLeuf58+ehBPMIkVgDKAliVWlQUNB3332HV4V7VMHBrVixggx6zAyKHZYTEOMpPTw8aK5u3bqkSjZv3oxLjhcvnre3d40aNQ4cOIA+derU2D9//hz9e++9h4aVRzQCy2FzwoQJtfvlqlSpki9fPg+Pt81ipkn27NlLlCiBcZ48eSpWrEhrWpF5Zvfu3UQvefPmxZ5XID/++KMyg/QFChRAz1t46d27d5Ven6ZJk0b/KPnoQQDvw+zACgIEaMBLoS/fW2jWsmXLHDly4LxQVqhQ4ezZs3zJCRlq1arl6enp5eVFlWTJkrVo0YJMqlSpMDMotljOp+H+/fvJkydXbUFo6EsePaFVjx49qob9hg8f/uDB239iFE3OnDmJYYhYTp06hSW+3NfXl4yJpEyZ0kSjHrV38ejj40N1Mtbk0aNH2GilKVKkUDaszM4AABAASURBVN1Ao9fHjRvXoi9nIWGpCa4d4eshYYyGSRRlXrx4gcvTGv/zzz9fvXpF4Ir/5msMoSki5Ws/Z84cPubKY6JEmErjV2phr8QWyz08PKCLtkUjhuYdVFP6WbNm4dGVEJCgh0+sTr4mtWvXJuql6zCPdUKRQdEb817eriqyrlRGn9K4Rmv0HHFqi4ceorEtHCTyCs0GiiM4lXLlymlK18844wgIPyCxvmc45kphPz7OeG5VhBnzSGigHlWK0qSu0ttObbGcmoUKFSKeViQjFkejhIMRWA7v1SNulQyfHlKEKII8LKf60aNHCdxRIpo9eYty5swZ7Cm6fv060RtRB/kkSZLw5aJB8nph88qG+ObNmyjZelKxTJky5A0K69DcbfMVMvHxBlsTM+MIEEPikrB/9uwZrH3//feZX0UhGKImFPIQq7Rq1YqoQf/vB0IGFZFjSQsGxQ7LCb75iDRv3py9HV8KPh+qXV5PDO3n5wfViNcPHz6Mfvr06fXq1evduzcnHpxvJEiQgEid4234FBbaVGXngZkNYVWwAe3Zs+f48eP5YBGjY/zRRx+x+2zXrh2v41ET6MjGlLOXDh06YE+klC5dOq3URgZvzV6HIegFeyhOOEhGJEoRyJYtG5zGS65ZswaiE3Dz8YfTRAGLFi3Cf/N2tp5Ev/CtSZMmxAtwHSVSunRpDhXmz5+PX+PRoNhhOTEA7164cCHBNwd88Jg4gabZ2HE4yEcfb7pq1Sr2EyhhCXtkDlgQStEgFPERoKMIJzBoaE1/izlHiuqKdIqIeTiIhLKcA2pfLjYDI0eOJJzgRAcbfXVIyZjpFaL+cS8M9A3yyM4dsMhoQi0WHr3VC91Dr9lIJuoQwP2xfWzbti0kgUi8CN7jxVCSKldF6EL0SxG7Qf6yoe3uCBNwo2xAyVBqUOyw3GArjjJToZGjWrPRDrEKnwK92DCWIldHwLlY7upoSv+dE4GYZLkJIsQz/CHTRCmPgkDkEXAilkd+MNKCIGARAWG5RVhE6VYICMvdajplMBYREJZbhEWUboWAsNytpjOcg4kt5sLy2DLTsXmcwvLYPPuxZezC8tgy07F5nMLy2Dz77jx2/X+gKyx355mOzWN77RL3l8fmGZKxOxYB8eWOxVNac0YEhOXOOCvSJ8ciICx3LJ7SmjMiICx3xlmRPjkWAWG5Y/F0p9aicCyhoaFBkfiFhITor2+w21FhuV2IxMDBCPwd9otMo69evXoR9jPYSKxj+W0rN5frr0MwiJ2YRQwB/Ul2xFpQteC5ythNnZ3lNm5Mb9as2eXLl+2OUG8AlVu1ajXR0q9f2I3memPJRwMCp0+f3rdvn/5FaIhl0JCuWbOGlLwSihCVD1carSwPDg6GZ+Hqn2ONd+3a1aRJk7mWfv7+/jHbN8eO1FVaO3PmzMyZM/Xc3b9/v7rXkhSW69cAxkgEhhatLD906JBjmaRuqAnvsHHlju1GeDsQ/fbQaMaMGXbfG7Hbwe02a9ugRIkSEF3vszX7XLlywXKLRZqNkYx9lm/YsKFHjx7VqlVr06YNLW7dunX+/PlLlixp0KABnUNz4cKFkSNH9uzZc/jw4VoIAV4DBgzo1atX586dqYLZwYMHV61atXPnzr59+27cuBEN2+SpU6dSsU+fPpSiQV5auTGdIr2o/J49e9q3b1+nTp0RI0bQ2uPHj2vVqkVGlbKRJ+DR372o9I0bN86TJ4/Kx5L03XffrVq1qt3B/hyh28HtNmvbIGfOnBAdNpubpUqViiJFM/NS4xo7LJ83b96JEye6du0KL8eOHava3bFjR7x48WbNmtWuXbuHDx/6+fmB4Pjx4ytVqtS/f391gV2KFCmg77hx40gDAwOfP39erFixwoULly9ffsyYMdWrV6ep0aNHJ0mShIq0jw3+BiXRBOw0vzGdInP566+/hgwZom5GpTVvb+/PPvts27//fgtrIH/+/D4+PiYVceTsQU2UbvxInDZ79my8lTbGdevWMaEANW3aNPwO+idPnjAFJreDs71bv349Tm3RokXq8m4sd+/e/d133/E9XLly5eLFix89emTRDPCJNxYuXAhPtvx7TznVLQpUhuUWfXbt2rUJXSi1WNGg0g7LITSB7HvvvUdskDLlP9cxp02bFkeeLFky3kEUlSNHjnz58pGHxKlTpz558iT5rFmzQnQyWbJkSZ48ubp6nUdNrl69ev78eRpH884775QsWVK5c9Bp2LAhr0NfV3djOo/mUqNGDerC4xYtWpw9e/bevXtVqlRR04Yx88GiImMi9N9E496P5cqVq1+/vskYWecVKlTAT0Ffvp9elm4HB0mmHmyZpsOHD0NoXNi5c+c6derUoUOH69evo0+aNKm5mXoXH3Z40rZt29KlSyuNxRRyaz6bvLkNnYRmFovMjS1qbLH8zZs3HL9r5NbqK/qqRzaUR48exZcrIXpRAQMMxgFMmjSJFGhoStlrKYxEX7NmTVWRdU9FzAgwWBXKDN/MR0PlLaZqpVHEqiAPELlz5+ag6tSpUzdv3sQzsfAoNRFYjmhKVjI+CYenaWJDBsfk6ekZN25caEqkp4YM3RMlSqTypGz1cEa4/O3bt0MDJgglh92kzBQunAxi0Qw97k/dU64uQ0RjQ2z4bKJzohrcOYvBRgs2imyxHOrgJiG6jfq+vr6s1M26Hx4CaIYNG1aoUKEuXbo0bdpUDVU1AjoqQ0WA09XbTPSv3oibUTYsA3BXeYsp8ZLS0yx52uSRLQTeBSlbtqzFRcKmgqAFSyU8wnK4btHxKxv3S4FaDYoM6Kk8DsLT8z+UKFq0KIEowrltxowZ4SuuZ9CgQYSdzLuqRWpihgZhCZEaF0JfqIyrMq/CGrBWZG5srvnPkMyLCaYhgVrrcM7cAGeJLz927Jgqwoa/S+HRcZbZs2cHPjqH21alfBb53qHkkf0QQfmyZcvUI6l6C2vD4o3pVDEXYk1eh55AM02aNMRL5PlAs4viPKdixYo8mkv37t3Nd58sTr6/5saxSsOMKJIxjwwcZ6zN7MWLF5kjlETwnLoOHz68YMGCPCIWzdCHV3DVBOhqe2ZelyI++OZ6Ixo7LCcm4wtFdEVcwWmGeYsQa+DAgXzuCaaxYZVDuyJFitBjTldatmxJcPZp2L+kRd0yZcqwk+DvMmxoeMSYjyARHhVbt26tYnd8hsUb07E3ET4RAE3Qxkfgzz//pBvKgNAlb968OBJiSqXRUhYAPp4O6IVPBxSH+pqZm2U2bdq0YsUKhsn+EsBtjA73vGDBAmYHZ4QZHzdOAqZPn05Ftj1ocPbML2cDaNATGaI0N0NpUAhFEM0Yn41AKjSkxYsXJ6MEPXOtN1Z6I6kdlhO0EXsAE6EF+2VaNL+z8+OPP+7duzdeGRsOVRIkSMB3jcOWKVOmgBespQV1gzifPDb1nNuweGgqQ4YMrBzOcanI0UqWLFlQEsaAIO/iXJIjP6DUbwMw0ITNO8uDA5YJEyZwkqNeoUr5CgO9yutTXDh+CELrhVfzqDdzszwhHKHj0KFDO3bsqPY8HLASl6thMnbiUpXHOzCVzA4ZNEwl3MINUZFtPajyhSxQoAC7TzSAz87VohlKPBpxDhnbQsyN6G14Iy4SDalJEe7cRIOZEbHDciNNRIPN5MmTQV8TlpCNl3LIg4/BPVu0IZSC63pBY9FSlOYIZMuWDWxxQwi+yRrI5hX1Gu1fjdUrI5A32ULYaME1WP7VV199o/txNG5xSByqECOxMeIAnu+JRRtRRgYBogjlyPHl+Hj1+Q1vg7BTf5IT3urKnqVivBHXYLkamN00Xbp0hEOcXebPn9+usRjEFAJsmdjmEpBERlToZXAIbsVybcySEQT0CAjL9WhI3j0REJa757zKqPQICMv1aEjePREQlrvnvMqo9AgIy/VoSN5RCDhXO8Jy55oP6U1UICAsjwpUpU3nQkBY7lzzIb1xFAL8hVVrSliuQSEZt0Lgtdxf7lbzKYOxh0Bs9OX2MJFyd0NAWO5uMyrjMUdAWG6OiWjcDQFhubvNqIzHHAFhuTkmonE3BITl7jajrjCe6O6jsNwC4rfljnMLqLiwyh1Y/vnnn2tXvphMRTO549wEkVj56A4sd+zE7dold5w7FtGYb839We7h4REBmCdOnKi/ZS4CLbh9ldOnT8+Y4aR3opuAb4flV69e9ff379u3b4cOHaZNm6buENu6dau6Xalx48atW7fesWOHatSGfv78/1x5funSJZpt1KhRnz59fvjhB6ofPHjwq6++IqNk//79nTt3Jv/gwQPH3nFOm927d//xxx/JKOG9+/77j36gZ2h5Ytkd54w6XPKuE9+JbjIQOyxPlixZ/fr1x4wZM27cuCNHjhw/flzV3759e+7cuWfPnt2tW7dly5b9/vvvtvWshHj/Xnl+69atAQMGFClShOrt27dftGgRpUWLFg0KCvrrr79UO1Bf3Wgz2tF3nNN+pUqVeCMZhDfSH95OXolKceTsQVVeUnMEiOuYvg0bNmhF65zsTnStY2TssDx58uTvv/8+dkmTJs2RI4c28dmzZy9RokTixIlxeBUrVtyzZw82iDV9Wt2V5z/99BMrpHTp0t7e3h988EGTJk3gnIeHR5kyZXbv3k0joaGhR48eLVeuHF+S8+fPY4DyHcfdcc6r//jjj+DgYJrduXMnL2IFktcLHdYGq9dLXiEAaLg/lddSEMM3tWvX7sCBAy9fvvSKuTvRtS6pjB2W3717d+XKlZMnT16wYMGVK1e0/5oR9qv6pD4+Poox5K3p9XcdPnr0iCoYK0mZMiVhCfkqVargIQiKiB8KFiyYJEkSTk6ePn3q8DvOEyVKBNFZWryL9cnE8HYTYfUimhLXvnjxYrqnaSRjjkC+fPk8PZ3oTnSth7ZYDqeJmyFop06dmjdvrr9u8/79+1oTrGCNtdb0mjEZGlS0Jo+wQiA6Gdr39fXFy+7du1cxj0eKNut+PXr0wOvzOl5KFYRlgNsgY00ePnyoiuA0edrksWrVqrD8xIkTPL4f9rFCqRc4jYGmYTOqNHrqa6WSUQgwNVoGtFUeFnnG3J3oqg+2WB4SEkKs/Nlnn8WNGxdHrgXl1Dxz5gxBBZnr169v3LixQIEC5BFreoo0IdTBDO+IhvbXr19PoEweKV++PJSmTXw5j+xv8OjE/QoyUkfdcQ6zafn777/njbzIRO7cuUOYpFaavgiKs3PVayRvFwFwZpYxwx+REvdG553ovBGxxXL86BdffNGlSxd8+bx58/B/VFBSqFAhNqA9e/YcP348NhDXtl6VqpSoxs/Pj0MoAjg2ryVLlixVqpQqKlu2LOEKAbq2+qPojnNeV7lyZb4bvJG8Xog4WYH6C87J8+mA4pwL6S1jc35TFN6Jfgpg8T5sz6brrk5HGWGxxXIa5UCNN3FuOGTIEIKWatWqoUTw7v3794fiEyZMqFWrFholFvXwiUMVZaBSFvSyE3ZnAAAQAElEQVSUKVNmzpzJAUvt2rWVkpR1j2vndJK8kgxRecd54cKFeaN6kZYqNuOz9TJ37lyhuAYRGZiA+xvqlHei0z0TscNyE2vtkeBBy+sz1vR6myjKs0XurfuxCG28iH0t4Uq9evUs2nDAAtf1gsaipSgjj4BD7kS33Y0Istx2ozFSyh93dFecf8NBu7VuECZ17NixevXqfFKs2Yg+2hBwyJ3otnsbEZabRyDqHdb0qtR50m+//ZYdrTVH7jz9lJ44CoGIsNxR75Z2BIHoQUBYHj6cxdoVERCWu+KsSZ/Dh4CwPHx4ibUrIiAsd8VZkz6HDwFhefjwEmtXREBY7oqzFpv7HJGxC8sjgprUcS0EhOWuNV/SW6MIaP/BHxWE5YAg4oYIvJb7y91wVmVI1hEQX24dGylxFwSE5Y6cSWnLOREQljvnvEivHImAsNyRaEpbzomAsNw550V65UgEhOWORFPack4EYjvLb8tV5c5JzAj2ynK1qGW5jZvFLXfHntZGg3JVuT3wYm951LLcNq7BwcG//fabbZsoLd0lV5VHKb5O03hMsvzQoUOOZbl2g1m44J0oV5WHC69/jd3n/vJBgwb98MMP/44rTp06de7evcvj2LFj16xZ4+/vX69eva5du164cAEl8vLly8DAwI4dOw4dOnTTpk3x48dHiVw1uwf94MGDq1at2rlzZ9++fTdu3IjNA7mqHBRcR951m/vLbWAOiWvWrLlgwYJatWoNGTLk0aNHGM+dOzc0NDQgIACWE5A8efIEJWJ+D3qxYsUKFy5cvnz5MWPGVK9eHZvRclU5KLiIEOy5z/3lNjAvVarUhx9+6OXlVaZMmaxZs6rLQffs2dOwYUMVOdStW1erntzKPeiaAc7e7a8q1wbrBply5cq5z/3lNuYD4mqlPmFXmL958+b+/fua3tvbW7v9njjH4j3oWgv37t17KleVa3C4ZsYl7y8Hak9PT+2/0/077IdSCYRWGVJOnSE6LpyUPBoE1hKmk6EFa/egszAwQHx9fVOmTLlZ94vOq8r1m2A2o3JVOTMSAYEAqhYZbWaZfVik9CotWrRopbAfh78ZM2ZMnDgxDpEdILFr6dKllQ2piRkaJG7cuKThFTtnLOnSpTt+/DgdpV21RySjhF3p9evXye/bt+/MmTN58+YlX6hQodWrV6sRLl26FA1i7R50op1z584pY7YySZIkWbZsmXokjc6ryvOY/UNZaLp3707nRSKJANPq1PeXM7zatWvfuHGjRYsWOGMWaObMmVEqYalNnjy5Z8+e27dvHzhwYKpUqdCzOq9cudK8efPBgwcnSpQoU6ZMKHHSX1i6B52AnkimVatW8+fPx4zVzDFLhw4dqlat2rp16zt37qC02CB6c0mYMGHBggXbtWvHR+DPP/+kS5pNZbmqXMPCQRnOHlasWMF3myM1Zs1Gq7hnjiiYYjwaZpw3cD4xXXcxOT701atXnFjQFPpTp6L9/nJ8+fjx4xcuXMjRIbtJupI6dWr6ilDESSKlI0aMwIWjQSA0fcV++PDh6u7zFClSoFd5qnMawxqoFnYPOl+radOmzZs3j1WETQa5qhwUXESYQRe8vzz84BJUhL+SY2rwDdHdVN5brip3DKwx1IrcX24ZeLmq3DIurqklOujUqRN/SUSIV7NkyeLwcdjZfVp7H2E6fxKyVuo8ermq3HnmIgZ7EkGWx2CP5dWCQHgREJaHFzGxdz0EhOXOMmfSj6hDQFgeddhKy86CgLDcWWZC+hF1CAjLow5badlZEBCWO8tMSD+iDgFhedRhKy07CwLGWO4svZV+CAJGEdD/577CcqOoiZ1rIfBa7i93rQmT3kYSAfHlkQRQqrsAAsJyF5gk6WIkERCWRxLAaKour4kMAsLyyKAndV0DAWG5a8yT9DIyCAjLI4Oe1HUNBGIdy29bubAcvWvMmPQy/AiEj+U2rg/n1Vu3bh01ahQZR8np06fbt29vsbUbN240atTIYpEN5cSJE/v160dqLuj1dw/ZaESKXA6B8LHc8vAMa2HtrVu3DJs73hAeN27ceK6lX/ny5Xft2uX4V0qLToBAtLJ83bp16i6hGBx42rRpcdsSn0R+CvBZM2bMsNvOkSNHYnzS7bD8pZX7yF+/fv3999/36dOna9euy5cvN7+b5cKFCyNHjuzZs+fw4cMvX74MFsuWLTt8+DC49O3bF4DQmNugDA4OHjJkSLdu3UaPHq2uWUJpURImTBgQENCsWbMGDRrMmjWLLj1+/LhWrVraVU+hoaGEWPr7HFU7/v7+adOmVXlJI4zAu25zfznfdrgCmUzuI1+6dOnJkyeJwpETJ06sXLlSD9bDhw/9/PyqVq06fvz4SpUq9e/f/+nTpw0bNkyfPj1x9pgxY3LlymXRhtUybNiwYsWKffvtt7169Tp+/Li+WZP83bt3kyVLNnny5LFjx167do1V5O3t/dlnn23btk1Z7tmzJ3/+/D4+PupRSxcvXqzlJRMxBIju3Of+cogCOz08PMCiru4+8s2bN+NE48WLB7Fq1Khx4MABDDTZv39/jhw58uXLh6Zw4cKpU6dmSZDXi0UbyBoUFMTCwDJ+/PjVwi6aI29RPD096Rskzpw5MztRuopZlSpVdu7cSQbZvXs30TYZE0mTJo2JRh7Di4D73F+OZ+Vzb34fOfqQkJAePXrgrRFiEi1IUGARdRw9epQiJUQmJgaYWbShWe112Pj6+pJak8SJE7MSVCm1WB7kc+fOTehCqHPz5k12uqwxlCaS57833OLaEfN1aFLLmR+dpG/4NVxP3LhxkyZNSvSoekXQmyhRIpUnPXPmzNWrV/nebt++PWXKlIoYf//9N0Xw6sWLF2QQi2bo8Z5EqmSYfVKDYisu9/DwwFPevn1btUXUQY/JKz2hMB5dCYENek1gZ+nSpVWRSitUqKBKGYnKWLRBSRzy6tUrZcMaUxmLKTiq/lAKWHSVDMIXAHeOlC1blq8NGhNp1aqVNiiKoDjC8Qv+iUeRCCMAMVRdMtpE43SgvtKrtKiz3V9eyNJ95PS1ePHisBzek0fUPypERgkeFF9+7Ngx9YiZIq6Xl9fZs2eV0qJNxowZISurHBuWNWcyZGzI2rVrKQXH1atXFyhQgDwCWX/++edDhw5VrFiRR3Nh4Wm7T43u3bt3N/Hx5hVFEwEEXOD+coJv8/vIGSruMHv27GwxcZzE6xyeoNSEQHzgwIFsUIibCVoGDRqkWE5+w4YN1GUBWLTBB3BoM2fOnC+//JL9Lh8ErU3zDN9HYpIOHTpA0HTp0jVv3lzZsCXNmzcv38333ntPabSUw3L+HkQH9EIpLWhfGx5F7CLgVveXEzkFBgaa30dOVMSGD8Yw2lWrVhEbgEvlypXhPRnk448/7t27N+ceOM5x48YlSJAAJaylKcIbjj54tGiDcsWKFVOnTuUgkgY5ecTSXDJkyIBB586dp0+f/t1337Vu3ZpYUDNjtVjcd0JljhHhtCY80kP0Wl3JGEEA7xYr7i83goWjbFgwepk5c6aNltlHsvu0RlxiFSITvdhoSoqiAQG3uL/cETh9899fu3btLLZKANOyZUvO4wl7+NpYtBGlsyFA7NrJOe8vdzakVH+IzufNm7do0SIVESmlpIKArZNEQUcQcA8EhOXuMY8yClsICMttoSNl7oGAsNw95tHWKKRMWC4ccH8EhOXuP8cyQmG5cMD9ERCWu/8cywiF5cIB90RA/5/7xjTL3RNhGVXMI/Ba7i+P+UmQHkQjAuLLoxFseVUMISAsjyHg5bXRiICwPBrBllfFEALC8hgC3mleGxs6IiyPDbPsdGMMDQ0NisQvJCTkwYMHxkclLDeOlVg6BoG/w36RaevVq1cvwn4GG4lFLP/Nys8gUmLmKAT0J9mRaROeG6zu7Cz//PPP7927Z3AwNsxatWo10cqPIhsVpShKETh9+vS+ffv0r0BDLIOGdM2aNaTklVCEqHy40mhleXBwMP40XP0Lr7HFV/DS27dvz7Xy4xUYkIpEPwJnzpyZOXOmnrv79++/e/cuPSGF5fo1gDFCUXglWll+6NCh8PEpvKOJE8faK9KmTQvR8ebhb9Kpa1i8HTwwMPDcuXMO6Tf7vIMHDzqkKWuNlChRAqLrfbZmmStXLlhusUizMZKxz/INGzb06NGjWrVqbdq0ocWtW7fOnz9/yZIlDRo0oHNoLphdVY4S9AcMGNCrV6/OnTtTBQ1grVq1aufOnX379t24cSMatslTp07t2bNnnz59KEWDvLRyYzpFJmLkFfoqEL179+56jRvkf/75Z+1GQm041atXz5gxo/YYmcydO3cuXrwYmRbs1s2ZMydEh83mlqlSpaJI0cy81LjGDsvnzZt34sSJrl27wsuxY8eqdnfs2BEvXrxZs2a1a9fO4jXkmKVIkQL6jhs3jhTX8vz582LFihUuXLh8+fJjxoxhGrAZPXp0kiRJxo8fT/vYqM8WYQXHTOY3pmNvIkZeoa+CL6fneo1L5588eQJot27dWrFiBRnl8JgO8mB448YNNbpt27ahmT17Nr5p5cqVAIuefdv69evRLFq0SLuVG6+B85o2bRoze/36dcz27t3LvF++fJkWtmzZggZBSSMIPot20AwbNoyWv/nmG3oCI0+dOnXlyhX8F1VoirfgzjCzIVAZlqshmJjVrl2b0IVSE324Hu2wHFo0adLkvffe8/DwSJkypWoap4gjT5YsGY9EUTksXVWeNWtWWIhBlixZkidPjksgr5erV6+eP3+exlG+8847JUuWVO58z549DRs25HXo6+puTOfRROy+wsTezR69vLw6duzILLRo0YIMbo8B8kg+c+bM5DXJnTs3n2I28fXq1eN8AyfCF5U5pSL4Hz58+NGjRxhDypo1a/7f//1flSpV1H+2WqpUqbJlyxI20CZKbJAPP/ywQ4cOnTp1ypAhA+2gwRgupkuXDsvixYurC19Zfji1tm3bFilSxPatrpCbzkN0Vgh5GjQRnCk0s1hkYmnt0RbL+RQSlmnk1ppQ9FWP7PaOWrqqHAbjJyZNmkT69OlTmlL2Wgro6IG1atiPfQYrHrP79++zKpSZt7c3Hw2VN0/tvsKkCotTf60crn1x2A8zikhdUQjwEuluB7c4BNYDMAImpTASorOHw8vg5rfrLhFnJYAHfg2b9OnTY4zgrdV94eSVsCRwz2vXrsVz4eZRYhA37MeL+F/aRwmkiifZs2dnptDYFtaJNZ/N4iGqwZ2zGGw3Yq3UFstxqD4+PhDdWmX0vr6+pc2uKgdBvmKFChXq0qVL06ZNQQFLJfBYZajI+tms+xH9qzfCP2XDMmAWVd4kNfIKkypsfPW7T/wQk4pgxpSQuqJAKUgZgZ6bXCJOC/nz58f1Mi9Lly6FUmjixIlj0j6+iRgG31SrVi1cBn+dUWbmqdYrWmBazQ3MNX5+frzXos9mDVgrMm/HXGOL5VgTTBOrPX78A+M6uAAAEABJREFUmDycIzURvkr48mP/vaqc/Si8YRHDaToHNKoWa529P0oe3333XYLyZcuWqUdS9RbWxurVq3nEBrhJLYqRV5hUzJMnj/nuk36aK00qOvMjGCpaWJwdaz0nyNSmjM0laLNxImLEExcsWJC9019//aXqJk2aVE3fs2fP4OvNmzfTpEmjfCpxvLKxmF67dg3fTNHvv/8OE8jYFZolblHbM3Njivjgm+uNaOywnNCNP8cShRNWtG/f3rzF1KlTDxxoelU5oRg95nSlZcuWfNQ+/fRTVbFMmTKMnL/C8MlDM2jQIKIUgjwab926NV9AlNZuTKdILwZfoapAZTK8Vy94cfRQHPZT6qLCh3TBggXgiftgCGDIThHMORnjY4XGosBjovPp06djrMJo+M1cjBgxgm0l9MVVq4rZsmUjRGETCcMgOnzFSbOXJRBVq0uZmafstQjHObFgOfGnPXMDpSEUQVSeFJ+NQCrypMWLFyejBD0But5Y6Y2kdljOUib22LRpE5HFwoULabFy5cocEZLR5GOzq8oTJ07cv3//KVOmgD6spYVMmTJhz/EWW3jObVg8PGbIkIGVM2PGDBrnWCBLliwoCWOAnncNHz68cePGzIQK7yjSi8FXqCqw2d/fH0LrBQ0vdWmKM7q8efP27t0bPMnwiKNlpzh48GBGCpXRVKpUqUCBAjgdoOaRXSM71AQJEkAa/AvGbCuJKGA5GfwOBngcFcRjjyU2RDKNGjUC8/jx4+PyOFMmEK1Tpw6ODBsOgkmZLM4DWAbscXnEkloU4VlgERqLQsyN6IvoGL1FQ2pShDs30WBmROyw3EgT0WAzefJk5lITllB4XwrRIbSJhLcRsXcIAiwAh7TDV8VgO67B8q+++orjWE04aDc4PDGLEQQ4plSfDotvh512z4UsVtQrWSrGG3ENluuH97+85FwTAaIjNs0EJJER7bjZCAbCciMoiY1rIyAsd+35k94bQUBYbgQlsXFtBITlrj1/0nsjCAjLjaAkNpYRcBWtsNxVZkr6GXEEhOURx05qugoCwnJXmSnpZ8QREJZHHDup6cwI8BdWrXvCcg0KybgVAq9jxf3lbjVlMphIISC+PFLwSWWXQEBY7hLTJJ2MFALC8kjBJ5VdAgFhuUtMk3QyUggIyyMFn1S2gYCNolC5v9wGOlLkBgj8HfaLzEBeyf3lBuH7zcrPYHUxizAC+pPsCDdCxRcvXpAakaiNWD7/3DG3j2sjcVSDrVq1mmjlR5H2OslENQKn3e/+chPIguU6cxNEYt/jGfe7v9xkEq3dNW5iFplHa69I6y7XmR85cuTOnTsmEAXK/eX/RcROxDJo0KAffvhBq1KnTp27Yf9OwNixY9esWePv71+vXr2uXbteuHBB2by0cvv41atXMe7bt2+HDh2mTZv25s2bgwcProrB68zjxIHo3V3/OnO5v1wRz3Zqh+U2Km/atKlmzZoLFiyoVavWkCFDHoXdDjx37lwOiQICAoYOHUpA8uTJE9VCsmTJ6tevP2bMmHHjxuF+jh8/XiymrzOnYzt27CB1UQFbfPYtub/cwPxFnOWlSpX68MMPvby8ypQpkzVr1qNHj/I6a7ePJ0+e/P3338cgadKkOXLk0G61RaMEZ3/+/PkmTZrw+E60XGdu3gde7UIC8h3l/nJjExZxlkNc7RU+Pj54buIQa7ePE+esXLly8uTJ+P4rV66YnyXdu3fv6dOnfByqhv0Ihx48eGCjQe3VWoZFsmjRIhs3pmuWKkPEUqFCBZUnhfSLw37kXUgIEe1eMcV6kPvLbc2pp6enxsiws/y/NWsIreWhCET38PAgJa/0sJY5IE8Lffr0SZEiRadOnZo3b65uBkWPwGNSxNfXN2XKlJt1vxi8zjxPnjx0ySUEbJmjCHRV7i//H2jp0qUjhgZKVBvD/skrMkrYlap/fWbfvn2cB+XNmxe9xdvHQ0JCgoKCPvvss7hx4+LIaRBLBB9z7tw5RXS5zhxAIiBJkiQBWyriU0gNCkHjsX+vnI+p+8vNu5oq7N/K4gTdvAhNiRIl+MKTiYDYiVhq165948aNFi1a4Ixx1fp/sAZnQATSs2fP7du3Dxw4kC7y+mbNmsFjHPbgwYP5kiq3jZP+4osvunTpgi+fN28eIQmWCAE9kQx/hZk/fz6PnOcQpXAIg0HrKL7OnHCF9+qFaAUlpy4u5MgBTe4vBwS7Yofl+PLx48cvXLiQo8O6detyeJI6dWrVKEUcDlI6YsQIXLhSQmg2/tib3D7eOOwmcqpzGsMaqFatGvYxeJ05bDYRxsIBkWtRHAz5hPaW+8sBwqbYYbmNuirSsGEQdUV8Q5haTeQ686iDOipajh8/vkOaNb4hiTjLHdLRiDUi15lHDLdoq+Um95cTpnPqF22oyYvcCQEOIdg0s5GLjOgPsu2C45K+3O6oImsg9d0LAWG5e82njMYSAsJyS6iIzr0QEJa713zKaCwhICy3hIro3AsBYbl7zae7jMax4xCWOxZPac0ZERCWO+OsSJ8ci4Cw3LF4SmvOgoD+7//CcmeZFemHYxFQ/7m4alNYrnCQ1J0REJaHf3alhqshICx3tRmT/oYfAWF5+DGTGq6GgLDc1WZM+ht+BITl4cdMargaAsJyV5sx6W+cOOHFQFj+H8Ss3Gn+23+M5MHVEHAHlsul5q7GuujurzuwPLyYBVu6N/122G+ulV/atGlx8+F9kdg7CQKxkeXWLjVnSqB6v379yJgLReZKt9Qccf070U3mxQ7Lr5rdO079rVu3BgQEBAYGNm7cuHXr1tr9yDb08+fPX7JkSYMGDWbOnEkLly5d8vf3b9SoUZ8+fX744Qc0Bw8e/Oqrr8go2b9/f+fOnck/ePBg6tSpPXv2xBIbNMhLK7ekU2QiTNiAAQN69epFa3SPUhoxuTcdpSb4bDqmPcbOjBvciW4ycXZYbn7vuKq/ffv23Llzz549u1u3bsuWLfv9999t61kJ8eLFmzVrVrt27W7dugXzihQpQvX27dsvWrSI0qJFiwYFBf3111+qHaivLqQdPXp0kiRJxo8f37VrV9aVukSPsMLiLemqrj5NkSIFK2TcuHGkVH/+/Hkxs3vT9fbk6QxpxMWVaz558gSUmKAVK1aQYUYYzcOHD8mD+Y0bN3hEtm3bhobpw3mtXLkyICAA5YsXL9avX4+GCT1w4AAaBC+Dd5s2bRpTr27V3Lt378aNGy9fvkwLW7ZswQZBSSMIDoh20AwbNoyWv/nmG3qCZzx16tSVK1fwd1ShKd6C+8PMoNhheXIr945nz569RIkSiRMnzpMnT8WKFffs2aPeZ02Pj8SRs2Yw++mnn1ghpUuX9vb2/uCDD5o0aQKxPDw8ypQps3v3bgxg8NGjR8uVK8eX5Pz58xiglEvNASGqxcvLyz3uRDcByg7L7969y5KaPNn03nHYrzXkE3Z5uXq0psenKgPSR48eUYWMkpQpU6p1WaVKlV27dr1582bfvn0FCxbEhcf4peb0cHHYL/YE5QyZgDBRokRkbAjrgY8zfgobz7Drv8+cOYNXws1v375dm9Nq1aqBH14Mm/Tp02OM4K0TJkxIRhMogXteu3btnTt3cPPoMYgb9uNF/K/6z2jxlYpIOFPcH2YGxRbLaZpomHY7md07bn55uXqfNb0qVSkNKlqrR048AIV8pkyZfH19//jjD75fKlzhkSLdneabo/lSc6aHSULonuoSGbcX5h1SRmCYhJ2Vwn7NmjXLmDEjLeTPn79t27bM49KlS3FeaBCT9vFlxDA1a9asVasWIL969Qobi6L1ihb4+Fu0sai0xXJr947TEAuXoIIMwRZdLFCgAHnEmp4iTQh1MFMHc0R+BHMgo0rLly8Pp2kTX45GLjUHhOgXvqLMC+91gzvRGQVii+X4UYv3jlOtUKFCfJjY0rEvxAbiokSs6SnShKjGz89vxowZ7ETZvJYsWbJUqVKqtGzZsqx4AnRt1UbnpebsMfQ3mpOfOHEiX8nu3btTpHoYG1K2TAsWLCCEOHfuHOMlimCnSCCxYcOGnTt3orEoeCg2VNOnT8f47Nmz2BBp8NEeMWIE20q2obhqlEi2bNkIUdhErlmz5tmzZ4QfTDd7WbatanVhY1HYm61bt27s2LHHjh3jT4EWbeLEiWOut8VyrDkrpN/0Un/vOHoG0L9/fyg+YcIErffW9JUrV+ZQhVJNcuTIMWXKFPbODKx27dqaHi+Ca+d0UtNkyJCBcxiWBD6ebX6WLFkoYvkBpfkt6RTphc0xneRFTBjfULbtBEUY8DFl1z9v3rwWLVrwqAlsNhFOFXlprKI4aLj6negMwUTssNzEWntkj6jl9Rlrer1NFOXZIms3mpOB3+F9EW4bQptIeBsReydEIIIsd8KR8Ecljlc14aDdCTspXYowArbvRLfdbERYbh6BqHdY06tSSQWBmEIgIiyPqb7KewWBiCEgLI8YbhGtJfViAgFheUygLu+MXgSE5dGLt7wtJhAQlscE6vLO6EVAWB69eMvbYgIBYXlMoC7vjF4E9CyP3jfL2wSB6EJAWB5dSMt7ohcBT8//cft/uejtg7xNEIhaBF6/fq29QFiuQSEZt0VAWO62UysD0xAQlmtQOEFGuhA1CAjLowZXadWZEBCWO9NsSF+iBgFhedTgKq06EwLCcmeaDelL1CAQW1h++/bt36z8ogZYadWJEDDO8red/vzzz+/du/c2Z+n/tm7dOmrUKEslEdSdPn26ffv2EaysqwbFW7VqNdHSr1/YT2crWTdEIHwsjyQAsPbWrVuRbMR2dYuv2LlzZ4UKFeZa+eHibbcppa6OQLSyfN26dXfu3IlSyGy8YnHYL0rf7h6NH4lt95e/tHJT+OvXr7///vs+ffp07dp1+fLl5tewXLhwYeTIkT179hw+fPjly5eZ/mXLlh0+fHjGjBl9+/bF46Ixt0EZHBw8ZMiQbt26jR49+tSpU2isCYTu1atXly5dCDqUpfkr9HXLly+vrs/VKyVvjkCsu7+cj3xoaGhAQMDQoUPh35MnTxQoS5cuPXnyJFE4cuLEiZUrVyq9Sh8+fOjn51e1atXx48dXqlSpf//+T58+bdiwYfr06Ymzx4wZkytXLos2rJZhw4YVK1bs22+/hcHHjx9XDVpM33//fVbCpEmTsJ8zZw42Jq9Ao5fbYT+9RvImCDC/gYGBRJUrYtX95Xv27IE66n7RunXraqBs3ry5WbNm6m7fGjVqaLeyK4P9+/fnyJEjX758PBYuXDh16tQsCfJ6sWhz7dq1oKAgFgaW8ePHr1atGhlrkjt3bmwoLViwIAQmY1cMmtltJ2YMov6tXrHw/nI86/3795MnT67g9fb2htbk0YeEhPTo0QNvjRCTPHjwAL0meP2jR49SpITIxMQAS4s2NKu9DhtfX19Sa3Lw4MGZYb8NGzYQQVkz0/TqajjtEcYTqC9ZskTTSEYhQJgai+4vx+SWY9gAAA67SURBVIX7+PjABjV4og7GT17pZ82ahUdXQmCDXhPYWbp0aVWkUo44VCkrRGUs2qC8e/eudoM1a0wZm6fbtm1bs2YNn5d27dqZuHztFSa1doT9NCXnirAcndY3rSiWZ3AZ+v8XBONouOT95QyvUKFCq1evVrwhFkejpHjx4rAc3qvHR48eqYxKiVLw5ceOHVOPmCni8kFUd/6it2iTMWNG1tX27dsxePHiBftLMhaFdj766KMUKVJgtuXff54GS/0reNSEtQqbEU2jMjj47t27q7ykCoEkSZIQN5Jn4kgNCjGqNuMXL16EM8+fP+d7GzduXEJKtv7aPxqVNGlS9VeXZ8+esaJu3ryZJk2aVKlS8SKOd0itCQEtTpDS33//PXv27GQMip2TRILvK1euNG/efPDgwXzF1M3INM0fWXgNW0z8KA6VwxOUmhCIDxw4cNeuXcT0BC2DBg1SLCdPdEFd4LBow1eCQ5s5c+Z8+eWX7Hf5IGhtmmRq167966+/skNt06ZNzpw5Ibcy0L9CaUiBmENx3qsXNFDc398fAxE9AsAeu+4vt3ZTeOLEiRs1asRHf9OmTatWrSpbtiwwVa5cGd6TQT7++OPevXtztEfEMm7cuAQJEqAEvoULFxLe5M+fn0eLNijZ4E+dOpWDSBrk5BFLc2G9cQ5Dy8xHiRIl+LAoG5NXKGXatGl5KT5bL2iE4gofkzRv3rzMXYsWLchQhKPt2LEjbg708BdoOB4oUKAA3pcTMx47deqULFkyphjX06FDB4yrVKmCw8KLk8HHYdC6dWv2dRgjWGLTtm1bKASROEJo0KAB3qpp06Z16tTpHPYvYHJIjWXjxo2zZs2KP61Xrx6PWFKLIrwVHwQ0BsWOLzfYSpw4UWsI6Hphzxne90F0PLde0IS3EbF3UQRcg+XareQqw47TReGWbkcYgei+vzzCHZWKgkCMIOAavjxGoJGXug0CwnK3mUoZiFUEhOVWoXGxAumudQSE5daxkRJ3QUBY7i4zKeOwjoCw3Do2UuIuCAjL3WUmZRzWERCWW8dGStwFgehhubugJeNwHQT0//GwsNx15k16Gh4EXsv95eGBS2xdHgHx5S4/hTIAuwgIy+1CJAYuj4Cw3OWn0NAAYreRsDx2z3/sGL2wPHbMc+wepbA8ds9/7Bi987L8tpUbx9HHjqmRUToMASdl+cSJE/v160dqLuh/++03hwEgDcUCBCLC8j179thGJjg4ODxEtNAY1bt37z7X0q98+fK7du2yUEdUgoAVBMLN8qtXr27dutVKa/+oDx06BE3/eYjE/7Rq1Urik0jg5xpVnz17Nnr06Cjtqx2W//jjjyNGjOgT9oO7UPzbb7+9ePFi3759J02aRM+OHDkyYMCAXr16de7cWbH/4MGDq1at2rlzJzYbN27ERv/vtJw7d65NmzYo37x58/333w8dOlTdcX7lyhWUJoIrl1tTTDBxy8e4ceNG6bhssfzly5eExTB87Nixfn5+2bJly5QpU506dbJmzTpmzJguXbrQsxQpUkDTcePGkQYGBj5//rxYsWKFCxcmrsCmevXq2FgUnD0rBJaPHz8e3qdLl87cbPHixeZK0cQ4AqdPn9buCn706NHkyZPpUlBQEF4pICBg+vTpFy5cQIMQ3K5Zs2bhwoWzZs3aEnadJd5tx44dU6dOnTBhAsr79+9jhuzduxf+4DpDQkJ4NNgalkbEFstZYcmSJcMr0zMfH5+UKVOatwjjITr6LFmyJE+e3Pg/qEKt69ev//HHH9R95513EiZMSMZE0qRJY6KRR2dAIGfOnMyduiv00qVL2cMu5vT19a1Ro0anTp2IMzdv3hwaGqq6evny5QYNGrRt27Z06dJofvrpp3v37vHIvouKUAslXE+fPn3Hjh1z5Mjxyy+/oDHYGpZGxBbLPTw8WKb0qXnz5qNGjVLXjZo0ev78+UWLFrEESRm26rSJjcVHPgt8IrZt29aoUaOZM2e+ePHC3CxPnjx6Ja4dOXnypF4peQcgEM4mIEbevHnVvxRCHJs/7NbL169fHz58eN68efhv8rdu3VKtQlzlwhInTozm1KlTBQsWREMjJUuWhM0ocaYwngz+jo8DGVow0hqWRsQWy6nP65s1a8aXiIhCu5hTozJh+rBhwwoVKkT00rRpU7pOFSWaDY+enp50mgzCqiVVAtFZ0HynCMrV50zptRSvoN99QnGEUKdcuXKajWRiBIEiRYoQcEJlJjd16tT0Ye3atd7e3rClUqVKmTNn1twWEQGlmvCoLkDWNGRohBSB+ooqBlujihGxxXLicuJsWokXLx4fKbXIkiRJArmfhP0DQ4Rf7A5ZhXB63759eH2MES8vr3PnzqEkj/AxAhEyiNqPklEtkGE1Q3fVOI964cNH+0qj0d3f39/ExysDSaMTAdwfs7x+/fpSpUqp9964cSN37tyQmJklcFdK8xQiEQPz2aeIQIADFjLmYrA184oWNbZYznLs2rVrixYtOC1hbbHvpImPPvqIWLxdu3bsR1nQqVKl4nSlZcuWhF+ffvopBkiZMmUIb/DE8+fP55HM0qVLibr69++v7oBGee3atcaNGxPGsbvl0KZixYooNWHzysaXinqhVCgOCE4ifMMfPHjAmYTqT+XKlSE9H3x8k41rl4sWLUoVNqnEq0Q7ynOrFvSpwdb0VWzkbbGcQIpwAqZyWkKfGBUN4ddHjhxJ5ECkjgHEnTJlCjZ8qohe8MrYZMyYcdq0aYRorBAeYT8GNMWxKFuQ2bNno+QLwD5djZb21VcPvZImTZpAaOIZTXgEPvHiCh9nSJmL3r17az0h/sbZtW/fvl69eji+XLlyUYS/q1SpEhlNiEkqVKjAiRzeDc5AIQJd8soAH8pWlbzB1rA0IrZYbqR+1NkQq4CjXqLuXdKyeyPgvCz/F3f5X0EgsggIyyOLoNR3fgSE5c4/R9LDyCIgLI8sglLf+REQljv/HEkPI4uAsDyyCLp/fdcfobDc9edQRmAPAWG5PYSk3PUREJa7/hzKCOwhICy3h5CUuz4CwnLXn0MZgSUEPDw8NLWrs1wbiGQEAasICMutQiMFboOAsNxtplIGYhUBYblVaKTAbRAQlrvNVMpArCIgLLcKjRQYQsAVjITlrjBL0sfIISAsjxx+UtsVEHAWlt+2clv5b3KJsyvQyMn76BQsh8qtWrWaaOnXL+zn5CBK95wcgShk+R5715xr0Jw8ebJChQpzrfxw85qlZASBCCAQVSy/auCac5Pu4spx6iZKHiPBcmqLxDwCZ8+enTZtWiT7ceXKlcDAwIg1YoflY8eOXbVq1ZgxY+rVq/fVV1/BwpEjRzZs2LBt27YrV65Ur3z9+vX333/fp0+frl27Ll++/M2bN1Dc5JpzNP7+/n379u3QoQMDxkbV1aeNGzfO89/rP/WlknddBDJlymTjjm/j44ob0WvO7bCcHmzZsqVu3borVqwoWLDgsGHDsmfPPnPmzN69ey9cuFBd7bl06VJCjlFhvxMnTsB+RlWnTp2sumvOkyVLVr9+fVbLuHHjjhw5oq5LpXG94LMRvUbyro4AXhwHPHv27NWrV6uxhIaGLlu2bM6cOVOmTNm+fbvyd5cuXZo3bx682rx5s7ordN26dRs3bty2bRs+cefOnarus2fPMPvuu++o/uDBA6U0ktpnedmyZT/44AMPD49PPvkkUaJEkBXK5siRI0OGDIqU9KxZs2bx4sXz9vauUaPGgQMHzF+cPHny999/H33SpEmpqyryaCLW9CZm8ugqCDDXHTt2VJfCqT4TDsSPH79169ZffvmluhE/ODh4/fr1fMnbtWvn6+u7YcMGZQkZ2K2hhFEvX75EeevWrc8//5yQIWfOnJs2bUJjUOyzPEmSJKotvhd0QuVJeXzx4gVrMSQkpEePHlXDfsOHD7e4yO7evYuPnzx58oIFCwiwCHJowUQIVxBNCRyLFy9esmSJppGMGyCQN2/ex48fEwbzSSeP9zx16hQeMEGCBIyuQIECzDsZJF++fJ6entAMz0gVNDhWxUCKcP9oDIp9lttuiF76+PjMmjULj66EkxJVhQWgMnCaqD1FihSdOnVq3rw58YzSm6RweseOHZoSfisNC1pTSsbFEDDrLh98vvylSpViqzZhwgR1xbOKUrDFZ2u0gVpoEDJKSYZHhEctz6NdiSzLeUHx4sVhueouj+omcr4ADOPJkydocPZBQUGfffYZ6xJHbi0ob9KkiTmh8e7du3enERH3QAAXDkNSpUpVu3ZtQhfC9I8++gjHrG7KZ1+Hg7c20hs3bty8eZNS9oHsD8kYFAewnD/o8Eo/P79q1aqxTz18+DDvpuvsPgmq0BN+ffHFF126dOnUqRO7B0IbDPTy8ccfE4TRjl74ckFxTmb0lpJ3RQT4mHt6/sO0tGnTshnFiwcEBOD4UqdODT2ItgloOc+4d+8eWztrY8yfPz9RO+d+58+fN2eRtVro/3k3OYtCpFGzZk1VlDt3bvbFKk9KHg2ZxIkTN2rUiNNuNgTEW+xWUbIZ5cyRkIOjFx7ZW0yfPp2BDRkyhKCF9YBSE8VmfLZeiHyE4hpErpgh/Lh+/To9x1XjvMkgxKvdunVjI8fuU92IjzJLliwwhEgGYvDBRwPvCb7JILCCqPi9997j4K59+/ZwsmnTpl5eXhQZFDssN9hK5M1Y4nBdL2gi36y0EIMIEJlwIMhfTvi8l4vRfwrKWVgeg5Mhr44iBDgPIUbFc3P2R2QSRW8x0mxsZrkRfMTGHRAQlrvDLMoYbCMgLLeNj5S6MALambqw3IVnUbpuEAFhuUGgxMzFEMCRK6HfwnJAEIkhBKL4tYrlpMLyKEZamo85BOC3EmF5zE2CvDkqEVD/WQEs5yXCckAQcUME3rx54xn2g+ieL168ePny5at/fy/lJwi4JgKKwrhwKP38+fO4Yb+3FIfr5GE941JlKsVIRBBwIQQUb6ExArPjhf2gN8Lj2/9fjPj//hIkSECWVCRBAsHA9RCAvUgYw+PBbwSKx4kT5/8BAAD//xeE6fkAAAAGSURBVAMATzq4sLuU1H8AAAAASUVORK5CYII=;" parent="WIyWlLk6GJQsqaUBKTNV-1" vertex="1">
          <mxGeometry x="274" y="100.43" width="187" height="389.14" as="geometry" />
        </mxCell>
        <mxCell id="k7IrvAcoIWXZrxDGukcp-53" style="edgeStyle=none;curved=1;rounded=0;orthogonalLoop=1;jettySize=auto;html=1;entryX=0;entryY=0.5;entryDx=0;entryDy=0;fontSize=12;startSize=8;endSize=8;" parent="WIyWlLk6GJQsqaUBKTNV-1" source="iimxKHolQluQC7mrGDLt-15" target="iimxKHolQluQC7mrGDLt-18" edge="1">
          <mxGeometry relative="1" as="geometry">
            <Array as="points">
              <mxPoint x="220" y="535" />
            </Array>
          </mxGeometry>
        </mxCell>
        <mxCell id="iimxKHolQluQC7mrGDLt-15" value="BGCE&lt;div&gt;DB&lt;/div&gt;" style="shape=cylinder3;whiteSpace=wrap;html=1;boundedLbl=1;backgroundOutline=1;size=15;" parent="WIyWlLk6GJQsqaUBKTNV-1" vertex="1">
          <mxGeometry x="175" y="375" width="60" height="80" as="geometry" />
        </mxCell>
        <mxCell id="iimxKHolQluQC7mrGDLt-18" value="categories table" style="text;html=1;align=center;verticalAlign=middle;whiteSpace=wrap;rounded=0;" parent="WIyWlLk6GJQsqaUBKTNV-1" vertex="1">
          <mxGeometry x="317.5" y="489.57" width="100" height="30" as="geometry" />
        </mxCell>
        <mxCell id="iimxKHolQluQC7mrGDLt-27" style="edgeStyle=none;curved=1;rounded=0;orthogonalLoop=1;jettySize=auto;html=1;entryX=0.5;entryY=0;entryDx=0;entryDy=0;fontSize=12;startSize=8;endSize=8;" parent="WIyWlLk6GJQsqaUBKTNV-1" source="iimxKHolQluQC7mrGDLt-21" target="iimxKHolQluQC7mrGDLt-25" edge="1">
          <mxGeometry relative="1" as="geometry" />
        </mxCell>
        <mxCell id="k7IrvAcoIWXZrxDGukcp-15" style="edgeStyle=none;curved=1;rounded=0;orthogonalLoop=1;jettySize=auto;html=1;fontSize=12;startSize=8;endSize=8;" parent="WIyWlLk6GJQsqaUBKTNV-1" source="iimxKHolQluQC7mrGDLt-21" edge="1">
          <mxGeometry relative="1" as="geometry">
            <mxPoint x="167.5" y="584.9999999999999" as="targetPoint" />
          </mxGeometry>
        </mxCell>
        <mxCell id="iimxKHolQluQC7mrGDLt-21" value="store slug in category-slug&lt;div&gt;using SADD&lt;/div&gt;" style="rounded=1;whiteSpace=wrap;html=1;" parent="WIyWlLk6GJQsqaUBKTNV-1" vertex="1">
          <mxGeometry x="-70" y="555" width="170" height="60" as="geometry" />
        </mxCell>
        <mxCell id="k7IrvAcoIWXZrxDGukcp-56" style="edgeStyle=none;curved=1;rounded=0;orthogonalLoop=1;jettySize=auto;html=1;fontSize=12;startSize=8;endSize=8;" parent="WIyWlLk6GJQsqaUBKTNV-1" source="iimxKHolQluQC7mrGDLt-23" edge="1">
          <mxGeometry relative="1" as="geometry">
            <mxPoint x="360" y="576" as="targetPoint" />
          </mxGeometry>
        </mxCell>
        <mxCell id="iimxKHolQluQC7mrGDLt-23" value="" style="image;sketch=0;aspect=fixed;html=1;points=[];align=center;fontSize=12;image=img/lib/mscae/Cache_Redis_Product.svg;" parent="WIyWlLk6GJQsqaUBKTNV-1" vertex="1">
          <mxGeometry x="175" y="554.9999999999999" width="50" height="42" as="geometry" />
        </mxCell>
        <mxCell id="iimxKHolQluQC7mrGDLt-32" style="edgeStyle=none;curved=1;rounded=0;orthogonalLoop=1;jettySize=auto;html=1;entryX=0.5;entryY=0;entryDx=0;entryDy=0;fontSize=12;startSize=8;endSize=8;" parent="WIyWlLk6GJQsqaUBKTNV-1" source="iimxKHolQluQC7mrGDLt-25" target="iimxKHolQluQC7mrGDLt-31" edge="1">
          <mxGeometry relative="1" as="geometry" />
        </mxCell>
        <mxCell id="k7IrvAcoIWXZrxDGukcp-17" style="edgeStyle=none;curved=1;rounded=0;orthogonalLoop=1;jettySize=auto;html=1;fontSize=12;startSize=8;endSize=8;" parent="WIyWlLk6GJQsqaUBKTNV-1" source="iimxKHolQluQC7mrGDLt-25" edge="1">
          <mxGeometry relative="1" as="geometry">
            <mxPoint x="167.5" y="684.9999999999999" as="targetPoint" />
          </mxGeometry>
        </mxCell>
        <mxCell id="iimxKHolQluQC7mrGDLt-25" value="store in category-uuid&lt;div&gt;JSON&lt;/div&gt;&lt;div&gt;key uuid# category object&lt;/div&gt;" style="rounded=1;whiteSpace=wrap;html=1;" parent="WIyWlLk6GJQsqaUBKTNV-1" vertex="1">
          <mxGeometry x="-65" y="655" width="160" height="60" as="geometry" />
        </mxCell>
        <mxCell id="k7IrvAcoIWXZrxDGukcp-60" style="edgeStyle=none;curved=1;rounded=0;orthogonalLoop=1;jettySize=auto;html=1;fontSize=12;startSize=8;endSize=8;" parent="WIyWlLk6GJQsqaUBKTNV-1" source="iimxKHolQluQC7mrGDLt-26" edge="1">
          <mxGeometry relative="1" as="geometry">
            <mxPoint x="300" y="676" as="targetPoint" />
          </mxGeometry>
        </mxCell>
        <mxCell id="iimxKHolQluQC7mrGDLt-26" value="" style="image;sketch=0;aspect=fixed;html=1;points=[];align=center;fontSize=12;image=img/lib/mscae/Cache_Redis_Product.svg;" parent="WIyWlLk6GJQsqaUBKTNV-1" vertex="1">
          <mxGeometry x="175" y="654.9999999999999" width="50" height="42" as="geometry" />
        </mxCell>
        <mxCell id="iimxKHolQluQC7mrGDLt-29" value="yes" style="text;html=1;align=center;verticalAlign=middle;whiteSpace=wrap;rounded=0;" parent="WIyWlLk6GJQsqaUBKTNV-1" vertex="1">
          <mxGeometry x="-290" y="295" width="60" height="30" as="geometry" />
        </mxCell>
        <mxCell id="iimxKHolQluQC7mrGDLt-30" value="send error&amp;nbsp;&lt;div&gt;status 409&lt;/div&gt;" style="rounded=1;whiteSpace=wrap;html=1;fontSize=12;glass=0;strokeWidth=1;shadow=0;" parent="WIyWlLk6GJQsqaUBKTNV-1" vertex="1">
          <mxGeometry x="-420" y="305" width="120" height="40" as="geometry" />
        </mxCell>
        <mxCell id="k7IrvAcoIWXZrxDGukcp-63" style="edgeStyle=none;curved=1;rounded=0;orthogonalLoop=1;jettySize=auto;html=1;fontSize=12;startSize=8;endSize=8;" parent="WIyWlLk6GJQsqaUBKTNV-1" source="iimxKHolQluQC7mrGDLt-31" target="k7IrvAcoIWXZrxDGukcp-62" edge="1">
          <mxGeometry relative="1" as="geometry" />
        </mxCell>
        <mxCell id="k7IrvAcoIWXZrxDGukcp-73" style="edgeStyle=none;curved=1;rounded=0;orthogonalLoop=1;jettySize=auto;html=1;entryX=0.5;entryY=0;entryDx=0;entryDy=0;fontSize=12;startSize=8;endSize=8;" parent="WIyWlLk6GJQsqaUBKTNV-1" source="iimxKHolQluQC7mrGDLt-31" target="k7IrvAcoIWXZrxDGukcp-71" edge="1">
          <mxGeometry relative="1" as="geometry" />
        </mxCell>
        <mxCell id="iimxKHolQluQC7mrGDLt-31" value="store category uuid with db primary key" style="rounded=1;whiteSpace=wrap;html=1;" parent="WIyWlLk6GJQsqaUBKTNV-1" vertex="1">
          <mxGeometry x="-60" y="755" width="150" height="60" as="geometry" />
        </mxCell>
        <mxCell id="iimxKHolQluQC7mrGDLt-35" value="&lt;div style=&quot;line-height: 50%;&quot;&gt;&lt;h1 style=&quot;margin-top: 0px; line-height: 50%;&quot;&gt;Create category&lt;/h1&gt;&lt;p&gt;this diagram is prone to change. the&lt;/p&gt;&lt;p&gt;development flow needs to be loosly&lt;/p&gt;&lt;p&gt;coupled&lt;/p&gt;&lt;/div&gt;" style="text;html=1;whiteSpace=wrap;overflow=hidden;rounded=0;" parent="WIyWlLk6GJQsqaUBKTNV-1" vertex="1">
          <mxGeometry x="25" y="-125" width="210" height="90" as="geometry" />
        </mxCell>
        <mxCell id="iimxKHolQluQC7mrGDLt-36" value="key: category#slug &amp;lt;slug&amp;gt;" style="text;html=1;align=center;verticalAlign=middle;whiteSpace=wrap;rounded=0;" parent="WIyWlLk6GJQsqaUBKTNV-1" vertex="1">
          <mxGeometry x="107.5" y="597" width="192.5" height="30" as="geometry" />
        </mxCell>
        <mxCell id="iimxKHolQluQC7mrGDLt-37" value="key: category-uuid# category object" style="text;html=1;align=center;verticalAlign=middle;whiteSpace=wrap;rounded=0;" parent="WIyWlLk6GJQsqaUBKTNV-1" vertex="1">
          <mxGeometry x="110" y="697" width="200" height="30" as="geometry" />
        </mxCell>
        <mxCell id="iimxKHolQluQC7mrGDLt-59" value="" style="shape=image;verticalLabelPosition=bottom;labelBackgroundColor=default;verticalAlign=top;aspect=fixed;imageAspect=0;image=data:image/png,iVBORw0KGgoAAAANSUhEUgAAAPcAAAICCAIAAACcLsyHAAAQAElEQVR4AeydB3hVRbeGSegJJaGDoIDSFEGKNOm9SwfpnQsivYYOAgEpSknovUjvvYkUUZqISJUiHRJCCSD9vmR0/9tTd5KT5JyTdZ5155+9Zs3smW++WXvNxDt4tvpmVb7/CxARBNwJgf6ztgQFBd2/fz80NPTJkyeev/55O478BAH3QmDrkUsnLt15HfZ78+aNp3uNTkYjCPyDwImLdyE5FOdZWA4IIu6JABRXIix3zwmWUYGAojipsBw0YlTk5VGDAORWQvPCckAQcXMEhOVuPsGxeXj4cjX82MjyDCmTFsyewaIoUCR1MwRcj+VflPl438Q29Up+FLGZgNwbv246tHlZc5nR/XMkYs1KLWdGwJEsL5IrY6eahaJ6tK/fvLl06772MQrv6wpkf2f9T2eqD1xkUVgD4W1Q7J0fAdssD1//W1XKX69EBF2s8Tct++H35mNWrdr3h/Eq5pYdqn+KmOtF45YI2GF5/Hie/1f90yV+9Q9823Z+nzpFc2UChRpFcsztXXvfxLY7xrSY3LlazkypUE79qvqnOd7xSZLoWGDHHWNaokGIK+b1rkOAEdi1RtEPM6FBmlf4hJjh8NT/w1JJ/mwZ0Nct8eHsnrUwntOrdp3iH6JButUpik2ud1N/16nqL1M6pEuRRGm0j4b5KxLGj9ez/mdLB9T/aVL7xf3rtaqUj3ZMZMNPZ6ZvPGyilEd3RcAOy/3bVmxfrWA8T4/dv17KnNYnJPQpQKRK7hX69Pnag6dvhzz+7KN3u9QuivLPG/dIn714uXj3b6v2nSLfunJ+vy9KeiWK/92aQymTJp7YsconH6T/OEtaaPro6bOvF/9w+VYIZlPW/fzrhZvtqhYY0LhUlnS+u45fTOebZGCTUmgoVUK4nPPdVGeuBt29/0RpVGrxFVUKZWtSNo9HHI+V+05dC3rokySxMtanbEARvUbyboyALZYn905UKk9miNvymzWD5u0q1XMOPAOLuduOfzVl0/gVB/rN3s7ju2mSk07fdIT06bOX6KeFucnKBT9AM2rpjyt/PLVg54kE8eJWKvhB3qzpUO47eWXdwTMH/rhK/uGTZ4Ta1QrnIN9n5rahC/YMnr+L/OfFcpEquXnvUaOvVxCovHr9WmlUavEVz56/pDRBPM9zV4PGLT8wcdVBHs1FWG6OibtqbLE8fcqknh4et0MeP3n2Qht/4oTxe9QttqBPnYPftVs/vAl6ohpSc/FN6oVyTs9ahBzDW5Qlj0e/HvSQTPZ3UpJmy5CC9PdLb/+jyKReCcjjeknPXQsm9UmSiFTJ3t8uq8+IetRSi6/Ycvj8nK3H0qVIOqxF2fUjGmvBj1aLzJFzNxAySmA8YTpfLfUoqZshYIvld++HMtqUyRLDdTJKCMqbls+bzDtR4IZfhszfrZSk6tDDw4PsP3L3wWNy3yzf33PaViULdvwKX3/642rJPJmhPuH47C1H1fch+MHbUISIhSofhK2BoDANj4hqnIyJWHwFNkRBVfwWEDsRo3eoXhCNidQsmhPRlEObl+1QrSAajl80pVNkpBOOQMAWy4MfPv3t4m3vRAnYOw5qWprdZ5VPs8X1fEvkl69e333wpHCujFof8PePnjwjyMGDDmlWBv22IxdI65f8KH/2DIgyTuqVME/WtBeuB/9y5trq/X9cvn0/mVdCzJbt/Z2U0JyN49Dmb6tTisa2WHxF47J5xrWvVKHABw9C/37zxkIDGVImg82ISRnenXjJRCmPboCALZYzvFFL9/5x5S6HJ7U/y5UxdbKbIaHsDtFkTe87omU5gpmDp/7CTAm7TIJsnL06Tpm//fj3e06m9knCXhBByUpInDDe1TsPPngnZaGcGRuUyk0jS/zqU33Vvj8mrTmUMH5cLL0TxZ+x6QiOH71tsfiKq3cf5MuWno0v5zDnrgcNnve/Dw6tcbrCoTiHPHpBA8XbT1yHgYj7IWCH5YTITf1X5u8YiJTrPe/XCzfv3H+sNJ9+OW3y2kOdp2yq1G+BwgXvW7rnHCwr9/9HM3b5/hLdZ6FBPh+85OLNkIAuNVIm9yrTay6awl9N//XPWxlSJuULQAvzth+v0Hc+el6k9q8ov139E5qA9b+QV2KiMX8FW1taoBbyxcgVP5+5piqq9EbwI/4eNHTBbr2gEYorfNwytcNyh4+ZcMcrYfyyn2QpkzcLf0LKnjElQdGDx387/EU2GoToeG69oLFhL0WujkB0s5yDxfuhfxPlj2xdnrNC/pDZNWCzq4Mo/XdyBCLD8ogM7fDZ6zUGLSaWKNZ1ZqORyyevPRTNjjwinZY6Lo5AdLPcxeGS7rskAsJyl5w26XS4EBCWhwsuMXZJBITlLjlt0ulwISAsDxdcTmYs3TGGgLDcGE5i5coICMtdefak78YQEJYbw0msXBkBz2//r4KIIOB+CFT59H1tYXrmy5pWRBBwPwTS+rz9f+JRRI+6iEW1L6kgEPMICMtjfg6kB1GNgLA8qhGW9mMeAWF5zM+B9CCqERCWRzXC0n7MIyAsj/k5iKoeOHG7oaGhQZH4hYSEPHjwwPj4hOXGsRJLxyDwd9gvMm29evXqRdjPYCNRy/KbN28eO3bMWldUKQYmYs1e9O6BwOv/XpAW4UHBc4N17bD8m2++qVGjxpUrV0yaW7BgQbFixUhN9NojxMWgc+fOc+bMqVu37uzZs7UilaEIGWnphz3VlZmk7o3A6dOn9+3bpx8jGmIZNKRr1qwhJa+EIkTlw5XaYXmiRInefffdcLWIMRyFwVOmTFm1atWAsN/x48dRUqQJj8oAGxNJnz798ePHNUvJuDECZ86cmTlzpp67+/fvv3v3LkMmheX6NYAxQlF4xQ7Lv/rqq6lTp7733nvhanfLli1wO3/+/NSC7vjr1q1b49R5NBHctomGR1hOKuJABHbu3Dlq1KgnT95e02ej2d27d588edKGQVQUlShRAqLrfbb2lly5csFyi0WajZGMHZZ36dKFwEMtNXa1ffv2LV++fP/+/VlnNlrHTyuKY1O1alUoDnGJwnn8V/75X7z4Pzn5n6hEIG3atBkzZkyc2MIl1/rXwvKrV99eRKxXRnU+Z86cEB02m78oVapUFLEGzIvCpbHDcn1bX3/9NV155513vL29N2zYoC/S56G4ntBt2rSpVq0aSoiuN1P5TZs2qYykUYfA+PHjFy9e/Mcff3C2od5CrDh16tSAgICBAwcuXbr0zZs3f/75Z79+/V6+fPnjjz+SOXDgAJb4/uXLlw8bNowWmEE0yPbt22EC32eKxo4de/nyZYtm7OhmzZrFKwYNGoQlr6CuNYHKUMuiz65duzYulVJrdY3ojbL86dOnjNzLy4uFBTRNmry909n8BWBBiAKIJpwmhsmXz/TfhGAxmJiZNyiayCNQv379IkWKmLTDkXOzZs3atWt34sQJmJohQ4YWLVpgU7hw4bZt2+bOnZv8unXrgoODO3XqVKFCBZiKm799+zb+vk6dOtWrV2euW7ZsmTlzZnMz6iI0W7RoUVjO1s7DwwONRYHcms8mb25DJwnWLRaZG1vUGGW5egdYJEjw9qJxPn/mzTFsRXEVrvCIq+Z0RQXfOHWTKlBcWWp6jBHYny7d28v8Nb1kIoMAJINGJi0wg0mTJk2ZMiV6nCXBDGbkmeIPPvggefK3//IC7p/jNRz5kiVLKIK1pEjq1KlVxYQJ395XbM0sa9asuDYIY77GaMREbPhsonOiGty5+ShMGtE/Pn78ZOn3axcvWb1w0UqjLFcvgH981Gjr1q1bpCbCwQhUVsSFrDD+119/xQbXjpAxF2w0JauCWggZ1YhWJJkoQsDD462L1R9gm4QWBQoUwLUryZMnD/E9awDeT5s2rWLFimox0DcTMzQI/CY1Ln5+flBZ+VOTWqwBa0Umltqjt7fXF41qNWlcp1nTekZZzlr/5JNPHj9+DI9HjBgxd+5crTnzDEzdvHnzgLAf9vhscxulsch+lDaqqIqSRhYBs/qEo8wyAfqFCxd++uknyj/88MPz58/Hjx8fr3/p0iUM/vrrL7w7pCdWKVjwn3/+wNyMuhEQPCkBujrqMK9OEQeL5nojGqMsp61u3bqxdhk2HtrPzw+NuUBu3DMpRytsOs0NNA2lWBLMaMIj5Ibi4sg1lBySwStt3LiRpthHHjxo+V9ZotTDw4No++LFi8Qn6otdq1at7Nmzz5gxY+LEiY8ePcLAx8eHlcC2EuFoUh2RmZvRmkEhFEE0Y3w2QkSEhrR48eJklKAnQNcbK72R1A7LJ02aBC4ERrTFgNlE8sjYKleuTKZ58+boNYHZuG/ODUlx4ZreYgYbE4HftCwUtwhXZJTs//z//RUrVoymcCg4YzLe3t6UaHEzgQfGgwcPxnFSCqHr1avHcQo27DjjxYu3d+9egpaOHTsyd6VKlVJ+19yMur17927atCkZ2wK1EL0NbMapoyE1KaJXJhrMjIgdlhtpQrPBE8NRJZrSRkZZ6lMbxlLkDAhw9nLt2rXAwMAJEyYQw0D9CPSKECgCtcyreHoaZa9RO/N3iCYWIpAlS5YhQ4bg2kk5YSQijwAIsDNRov/9A4ARaIEqLBXjjQjLQUwkWhGIGzdukiRJCEgiI2wRjXfaOVluvP9iKQjYR0BYbh8jsXB1BITlrj6D0n/7CAjL7WMkFq6OgLDc1WdQ+m8fAWG5fYxio4V7jVlY7l7zKaOxhICw3BIqonMvBITl7jWfMpp/EeAvrP9m4wjLNSgk41YI6P+jeWG5W02tDMYiAq7IcosDEaUgYBUBYblVaKTAbRAQlrvNVMpArCIgLLcKjRS4DQLCcreZSlcaiNxf7kqzFUv7Grlh/x32i0wbznV/ue2R3L59+zcrP9sVpdSlEdCfZEdmIA67vzwyndDXHTRo0A8//KDXQO9WrVpNtPTr168far2x5N0VgdPOcH95eMGdNGnStm3bjNQ6efJkhQoV5lr5sQaMNCI2ro7AGWe4vzy8IBYvXjxcN2bgsy0SmmAmvK8W+5hFIDAw8Ny5c+Z9uHnzpsWr6zXLEjF+f7lJpFGnTp27Yf9OgDX9zp07f/31VzWAjRs3duzY0c/Pb/bs2dZCscaNG+fJk0fZS+rSCFSvXj1jxowWh6D/D6fMDXI61f3l5v2zoTl06NCmTZvGjx8/atSo/PnzH7fyL6jgsxEb7YS/SGo4DIFFixZduHBBNUcsev/+fSYLn600p06dWr58OfmHDx+iJPa8ceMGj0r++OOPgIAAvDihqdLYSHHn1i77rB2d95fb6KLFIvaa1apV8/LyojRfvnxZs2YlY1EAzqJelK6CQLJkyfhoZ86cWeswcwprW7Zs2bp16yf2/pmXoKCgVP/+mxPktUa0TLt27aLp/nLtlQYzISEh+nthfH19LVYkXEG0ImL0xYsXL1ny9rZsTSmZmELA5JZnumEt8qRIL5cuXcqUKZPycTly5NAXWcvb8Nns9IhqWDYs8QNz0AAAEABJREFUBmvVbevt/O2TiEobWNhZ/t+qOWt6VUoKrVnQZJTwsVMZkxRO79ixQ1PCb6Xh+EVTSiamENDPMn+IoRtx48bVqK8RA72JUPH58+dKqSqqvO2ULRxUtujOWQPWimy3qUrtsDxdunSE1Go87CZVHVJreoqUfPrpp9BXfa1o4c8//1R6fcoyaNKkiTmh8e7du3fXW0o+RhDAd6qJ48hBkQ/nFRwc/PjxY/pD5E1qUbJnz84R4bNnz1gSR48etWhjruR1BOicoJsXoaEoqu4vZw2xpWjRokWfPn08PDy02Muant4oKV269Lvvvtu0adMBAwbs2rWrbNmySq+lH3/8MSznD0N6IWKB4v7+/pqZZGIQASbx4sWL7CxxWGnTpn358mX8+PE5S2FbybkZDhsN3btz5w42ly9f3rBhA4dsceLE8fHxwWzWrFkcP8Bdza9jbCKEIoimhFdI6tSp0ZByME1GCXoCdL2x0htJ7ftyOrpw4cKxY8fWrVuX4fFu2sWXW9SzGGrWrIkBnzb4vXr16pEjR/YK+wEZek0Um/HZemGfLhTXIIrxTMKECb/88kt2lhz4dunSBb7SJc4Sevfu3aZNm/r166NHkyZNGmwGDx7MVJYvXx4Nkjt3buoy8xxCtG/fHo1FIeZG9EWwWb2I1KQId26i0Ve0kbfDchs1I1+Ee4DrekET+WalBSdHgA+CQ3rIx8RgOzHJcoNdFDM3QwB2Gr963NrYWSrGGxGWW4NR9FGFANGs3F8eVeBKu7EWgdjmy2PtRMfqgQvLY/X0x5LBC8tjyUTH6mEKy2P19MeSwQvLY8lEx+phCstj9fTHwOBj4pXC8phAXd4ZvQgIy6MXb3lbdCHAX1i1VwnLNSgk41YIqP9cXA1JWK5wkNSdERCWu/PsytgUAsJyhYNKJXVPBITl7jmvMio9AsJyPRqSd08EhOXuOa9OPiq5v9zJJ0i6F1kE9FeeRKytV69evQj7GaweM778Nys/g50WM5dGQH+SbTqQ8DzDc4Pm4Wb51q1bR40aZbB1i2atrFxbPnHiRIosVhGluyJw2hXvL7c7GTjx27dvz7XyozoGpCKxBIEzrnh/uZG5SZs2LUTHcxsxFhunQuDZs2ejR492bJdKxPj95T/++OOIESP6hP0OHTqkHx7fGv1tMitXrvz2228xePPmDQxu27ZtkyZNqlatWqdOnbVr16LXC0TvLnfE6RFxnXzcuHEd29mcMXt/+cuXL+ErDB87dqyfn1+2bNmMDO/48eNnz5797rvv5s+fzzKtWbNmrVq1TCriy3foLgE1KZVHByKAM1ry7x3Cjx49mjx5Mo0HBQURMwYEBEyfPl27oXzPnj1r1qxZuHDhrFmztmzZghkOi2maOnXqhAkTUN6/fx8lsnfv3sDAwEmTJoWEhPBosDUsrQk8sXbZZ+2ovr+cVZssWbKdO3cyWh8fn5QpU1rrpV4PatmzZ/f29o4XL16ePHmuX7+uL3XlvEv2HU/JFDx9+pTeX7p0iakh4+vrW6NGjU6dOrHd37x5M6fXKJHLly83aNCA77C67u+nn366d+8ej3x4qQgNsIHr6dOn79ixY44cOX755Rc0BlvD0qKwSFLF4P3lHh4eLH3G2bx5c85V7ob9WysWO6pX4vLPnz8PrBwYsZW0eLEdEYv+qltc++Kwn74dyTsEASYxb968fGBpjZgzf/78ZJiaw4cPz5s3D/9N/tatWygRiJswYUIyiRMnJj116lTBggXR0EjJkiVhM0ocH4wn88477/BxIEMLRlrD0obY8NlQiLWKs2cx2GjBRpGdk0SG1KxZM75u6dKlmzFjhr4hT09PhqdpHjx4oPL58uWjT93CfmnSpCFiUXp9CvuJhTQNn4swki9Gg/snFXEgAkWKFDly5AhUZsrUZa5r167lY8vMVqpUKXPmzNrBM19v/Xt55O8veg15GiFFoL4igMHWqGJbiIqhMq7d3Iw1YK3I3NhcY4vlxOXqTl5iD4irFq7WBLy/c+fOX3/9hYZP3g8//EAGefz4MSsbEhO3tWnThrooTQQq8xE0UeLgzZUmNvIYAQRwVV5eXuvXry9VqpSqfuPGjdy5c0PiJ0+eELgrpXnKpOOA+CxTxPeZAxYy5mKwNfOKJhpcNQG6tf5QxLbBpIrBR1ssZ4l37dq1RYsWffv2Zb1yWqJvNHny5E2bNu3RowfUZHeibTFZ/Ui9evU4YKHulClT+IuuVhEqkycc1AuOHD3twH5KRRyOQKFChfjYEkyqlitXrgzp+TgTlCdNmlQpzdOiRYtShU0qxw9EO8pzm5sZbM28IhoWEkJGCT4bUR8c0ui4v5zgjK30/Pnzx4wZwzhBiq4wJL4sZBB2Khwg4rYHDx5ct25dghSUw4YNa9y4McsOBGfPns3Why05eiWw2d/fH0LrBQ1BkVBcQRQVKdj27t1ba5n4u2XLlhwE44w6d+5M4EtRmTJlKlWqREYTYhK2Tz179uScjfAGPhCjk1cGH330EQQgb7A1LM2FVyN6PSzHqaMhNSkqUaKEiQYzI2LLlxupb2LDNvzPP//87LPPgIMiQhriHLbk5DWB6IBuIlqpZNwegfjx4ztkjNoOwW5rDmY5q5+1Pm3aNDx669ate/XqVbFiRQhttx9iEHsQgJ3Grx63BgtLxXgjDmY5fSpWrBghzZAhQ+bMmcPfIyyesWAmEmsRYNcr95fH2tmXgUcVAo735VHVU2lXEIgoAsLyiCJnWk+enRcBYbnzzo30zFEICMsdhaS047wICMudd26kZ45CQFjuKCSlHedFQFjuvHMjPQsfAtatheXWsZESV0aAv7Bq3ReWa1BIxq0Q0P8XlMJyt5paGYxFBITlFmERpVshICx3q+mUwVhEQFhuERaHK6XBmERAWB6T6Mu7owcBYXn04Cxv+Q8CoaGhQZH4hYSEPHjwz50R/2nXyoOw3Aowoo4yBP4O+0Wm+VcucX+5foS3b9/+zcpPbyZ5t0FAf5IdmUG9ePHCYHU7vvybb75Zv369tbZu3LjRqFEja6Xm+ubNm1++fFmvh96trFxn3q9fv8WL395DpLeXvJshcDra7i+PQeB27drVvXv3uZZ+6E+ePBmDfZNXRwMCbnt/uR47whUe8dk4dTIiTo7AM7e8v1wDnRhoypQp+NdOnTp9/fXX9+7dU0UJEyYMCAho1qxZgwYNZs2apYVcFy5cGDlyZM+ePYcPH24SpaiK+rRJkyZym4UeEGfOx3Wz+8v1WMePH79YsWITJ06cPHlyvHjxtGD97t27yZIlQzl27Nhr164tW7aMWg8fPvTz86tater48eMrVarUv39/ddceRRZlx44dyqlbLBVlZBAg8F0i95cbR1BdCsxS/uSTTzRSenp6NmzY0MfHJ3PmzOxE9+zZEydOnP379+fIkSNfvnzkCxcunDp1arsRdtq0aTEWcTgCOXPmvH79uvIycn+5HXg54ty0adPUqVPnzZt3+PDhN2/eqAqJEyfGzat88uTJOeknHxwcfPToUXy5EqIX22f4JuEKrp1I/ffff4811AezqBIPDw+5v9zOSaKGPUH51atXW7du3bJly4IFC2r6x48fv3z5Uj1CZZw6eV9f39KlS2/W/SpUqIDemhAIaR8HbHiE5XA9d+7cPIpEEgG5v9woy8+ePVuoUCE8NzG3dlW5Qn/t2rVk2HeuXr26QIEC5IlS8OXHjh0jj/C55I9VZKyJv7+/udtmYSDWqojeOAJsnOT+ckNwtWnTZsaMGT169Ojbt2/58uW1OgTft27d6tChA8cv6dKl4+8+FBGIDxw4kLNwQnaClkGDBlljebly5dgb8YchvdAC/KZBMiIOQQAPxZc227///lllub9cD2vv3r3VdZ589aZNmzZhwoTAwEAoyB8mMcuQIQPHhZ07d54+ffp3331HPKNd+f7xxx9TlyMXwpZx48YlSJAA+wULFrBJJaMJTeHIIbRe+BsRj5qNZCKPADsfpkNrh7MBIk+5v1wDJMozxCrMgV7QRPlb5QUxh4B2XBHJLnC+Z7AF+3G5wYbETBAwiADsTJQokUFja2YsFeONCMutwSj6qEKAP7nI/eVRBa60G2sREF8ea6c+Fg1cWB6LJjvWDlVY7vxTLz2MLALC8sgiKPWdHwFhufPPkfQwsggIyyOLoNR3fgSE5c4/R9LDyCIgLI8sglLfORHgL6xaxyLLcq0hyQgCToXA69evtf4IyzUoJOO2CAjL3XZqZWAaAsJyDQrJuC0CwnK3nVoZmIaAsFyDwkUz0m37CAjL7WMkFq6OgLDc1WdQ+m8fgVjK8ttWLk1Hbx8zsXA1BMLH8s8//1y7B9TVRvq//u7YsaNfv34TLf1atWpF6f9MJecWCISP5VEx5EmTJm3bts12y+r6RWXz5ZdfXrlyReUjlu7atatx48ZzLf26d+9OacSalVpOi0DUstzIsIsXL54rVy4bllevXt26datmUL16dYdcZYE7l/hEQzU6MyEhIQcPHozYG48cOXLnzp3w1rXD8pcvXwYGBnbs2HHo0KGbNm2KHz++esHr16+///77Pn36dO3adfny5epy0AsXLvj7+/fv3x+PuHLlSmV569atcePGNWrUqFq1ajt37kTZrFmzixcvUhfN06dPUf7666/ooXJAQACvw9G2bt1aRQ5Q/Ntvv8W+b9++eH3MlixZQptkEMAaMGBAw4YNv/7663PnzqFBxo4du3r16gkTJtSvX79Lly6qHfQmQlcdslpMmpVHuwhAUybUrplFg59//lmRzWKpNaUdlvNVDw0NDQgIgOXBwcFPnjxRDS1duvTkyZOjwn4nTpxQnJ4xY0blypVHjx79zTfffPrpp1hSpVevXsWKFaMdmFe4cGGUCEz94osvNm7cmDhxYh412b59e+7cuWfPnt2tW7dly5b9/vvvmTJlqlOnTtasWceMGQNlNUsy+/fvnz9/foMGDebNm1e2bNnBgwdrkcy6detKlSq1YMEC4uypU6eyVrE3kcXyjxaZIBItj3v37mXeL1++jDvbsmWLeuf58+ehBPMIkVgDKAliVWlQUNB3332HV4V7VMHBrVixggx6zAyKHZYTEOMpPTw8aK5u3bqkSjZv3oxLjhcvnre3d40aNQ4cOIA+derU2D9//hz9e++9h4aVRzQCy2FzwoQJtfvlqlSpki9fPg+Pt81ipkn27NlLlCiBcZ48eSpWrEhrWpF5Zvfu3UQvefPmxZ5XID/++KMyg/QFChRAz1t46d27d5Ven6ZJk0b/KPnoQQDvw+zACgIEaMBLoS/fW2jWsmXLHDly4LxQVqhQ4ezZs3zJCRlq1arl6enp5eVFlWTJkrVo0YJMqlSpMDMotljOp+H+/fvJkydXbUFo6EsePaFVjx49qob9hg8f/uDB239iFE3OnDmJYYhYTp06hSW+3NfXl4yJpEyZ0kSjHrV38ejj40N1Mtbk0aNH2GilKVKkUDaszM4AABAASURBVN1Ao9fHjRvXoi9nIWGpCa4d4eshYYyGSRRlXrx4gcvTGv/zzz9fvXpF4Ir/5msMoSki5Ws/Z84cPubKY6JEmErjV2phr8QWyz08PKCLtkUjhuYdVFP6WbNm4dGVEJCgh0+sTr4mtWvXJuql6zCPdUKRQdEb817eriqyrlRGn9K4Rmv0HHFqi4ceorEtHCTyCs0GiiM4lXLlymlK18844wgIPyCxvmc45kphPz7OeG5VhBnzSGigHlWK0qSu0ttObbGcmoUKFSKeViQjFkejhIMRWA7v1SNulQyfHlKEKII8LKf60aNHCdxRIpo9eYty5swZ7Cm6fv060RtRB/kkSZLw5aJB8nph88qG+ObNmyjZelKxTJky5A0K69DcbfMVMvHxBlsTM+MIEEPikrB/9uwZrH3//feZX0UhGKImFPIQq7Rq1YqoQf/vB0IGFZFjSQsGxQ7LCb75iDRv3py9HV8KPh+qXV5PDO3n5wfViNcPHz6Mfvr06fXq1evduzcnHpxvJEiQgEid4234FBbaVGXngZkNYVWwAe3Zs+f48eP5YBGjY/zRRx+x+2zXrh2v41ET6MjGlLOXDh06YE+klC5dOq3URgZvzV6HIegFeyhOOEhGJEoRyJYtG5zGS65ZswaiE3Dz8YfTRAGLFi3Cf/N2tp5Ev/CtSZMmxAtwHSVSunRpDhXmz5+PX+PRoNhhOTEA7164cCHBNwd88Jg4gabZ2HE4yEcfb7pq1Sr2EyhhCXtkDlgQStEgFPERoKMIJzBoaE1/izlHiuqKdIqIeTiIhLKcA2pfLjYDI0eOJJzgRAcbfXVIyZjpFaL+cS8M9A3yyM4dsMhoQi0WHr3VC91Dr9lIJuoQwP2xfWzbti0kgUi8CN7jxVCSKldF6EL0SxG7Qf6yoe3uCBNwo2xAyVBqUOyw3GArjjJToZGjWrPRDrEKnwK92DCWIldHwLlY7upoSv+dE4GYZLkJIsQz/CHTRCmPgkDkEXAilkd+MNKCIGARAWG5RVhE6VYICMvdajplMBYREJZbhEWUboWAsNytpjOcg4kt5sLy2DLTsXmcwvLYPPuxZezC8tgy07F5nMLy2Dz77jx2/X+gKyx355mOzWN77RL3l8fmGZKxOxYB8eWOxVNac0YEhOXOOCvSJ8ciICx3LJ7SmjMiICx3xlmRPjkWAWG5Y/F0p9aicCyhoaFBkfiFhITor2+w21FhuV2IxMDBCPwd9otMo69evXoR9jPYSKxj+W0rN5frr0MwiJ2YRQwB/Ul2xFpQteC5ythNnZ3lNm5Mb9as2eXLl+2OUG8AlVu1ajXR0q9f2I3memPJRwMCp0+f3rdvn/5FaIhl0JCuWbOGlLwSihCVD1carSwPDg6GZ+Hqn2ONd+3a1aRJk7mWfv7+/jHbN8eO1FVaO3PmzMyZM/Xc3b9/v7rXkhSW69cAxkgEhhatLD906JBjmaRuqAnvsHHlju1GeDsQ/fbQaMaMGXbfG7Hbwe02a9ugRIkSEF3vszX7XLlywXKLRZqNkYx9lm/YsKFHjx7VqlVr06YNLW7dunX+/PlLlixp0KABnUNz4cKFkSNH9uzZc/jw4VoIAV4DBgzo1atX586dqYLZwYMHV61atXPnzr59+27cuBEN2+SpU6dSsU+fPpSiQV5auTGdIr2o/J49e9q3b1+nTp0RI0bQ2uPHj2vVqkVGlbKRJ+DR372o9I0bN86TJ4/Kx5L03XffrVq1qt3B/hyh28HtNmvbIGfOnBAdNpubpUqViiJFM/NS4xo7LJ83b96JEye6du0KL8eOHava3bFjR7x48WbNmtWuXbuHDx/6+fmB4Pjx4ytVqtS/f391gV2KFCmg77hx40gDAwOfP39erFixwoULly9ffsyYMdWrV6ep0aNHJ0mShIq0jw3+BiXRBOw0vzGdInP566+/hgwZom5GpTVvb+/PPvts27//fgtrIH/+/D4+PiYVceTsQU2UbvxInDZ79my8lTbGdevWMaEANW3aNPwO+idPnjAFJreDs71bv349Tm3RokXq8m4sd+/e/d133/E9XLly5eLFix89emTRDPCJNxYuXAhPtvx7TznVLQpUhuUWfXbt2rUJXSi1WNGg0g7LITSB7HvvvUdskDLlP9cxp02bFkeeLFky3kEUlSNHjnz58pGHxKlTpz558iT5rFmzQnQyWbJkSZ48ubp6nUdNrl69ev78eRpH884775QsWVK5c9Bp2LAhr0NfV3djOo/mUqNGDerC4xYtWpw9e/bevXtVqlRR04Yx88GiImMi9N9E496P5cqVq1+/vskYWecVKlTAT0Ffvp9elm4HB0mmHmyZpsOHD0NoXNi5c+c6derUoUOH69evo0+aNKm5mXoXH3Z40rZt29KlSyuNxRRyaz6bvLkNnYRmFovMjS1qbLH8zZs3HL9r5NbqK/qqRzaUR48exZcrIXpRAQMMxgFMmjSJFGhoStlrKYxEX7NmTVWRdU9FzAgwWBXKDN/MR0PlLaZqpVHEqiAPELlz5+ag6tSpUzdv3sQzsfAoNRFYjmhKVjI+CYenaWJDBsfk6ekZN25caEqkp4YM3RMlSqTypGz1cEa4/O3bt0MDJgglh92kzBQunAxi0Qw97k/dU64uQ0RjQ2z4bKJzohrcOYvBRgs2imyxHOrgJiG6jfq+vr6s1M26Hx4CaIYNG1aoUKEuXbo0bdpUDVU1AjoqQ0WA09XbTPSv3oibUTYsA3BXeYsp8ZLS0yx52uSRLQTeBSlbtqzFRcKmgqAFSyU8wnK4btHxKxv3S4FaDYoM6Kk8DsLT8z+UKFq0KIEowrltxowZ4SuuZ9CgQYSdzLuqRWpihgZhCZEaF0JfqIyrMq/CGrBWZG5srvnPkMyLCaYhgVrrcM7cAGeJLz927Jgqwoa/S+HRcZbZs2cHPjqH21alfBb53qHkkf0QQfmyZcvUI6l6C2vD4o3pVDEXYk1eh55AM02aNMRL5PlAs4viPKdixYo8mkv37t3Nd58sTr6/5saxSsOMKJIxjwwcZ6zN7MWLF5kjlETwnLoOHz68YMGCPCIWzdCHV3DVBOhqe2ZelyI++OZ6Ixo7LCcm4wtFdEVcwWmGeYsQa+DAgXzuCaaxYZVDuyJFitBjTldatmxJcPZp2L+kRd0yZcqwk+DvMmxoeMSYjyARHhVbt26tYnd8hsUb07E3ET4RAE3Qxkfgzz//pBvKgNAlb968OBJiSqXRUhYAPp4O6IVPBxSH+pqZm2U2bdq0YsUKhsn+EsBtjA73vGDBAmYHZ4QZHzdOAqZPn05Ftj1ocPbML2cDaNATGaI0N0NpUAhFEM0Yn41AKjSkxYsXJ6MEPXOtN1Z6I6kdlhO0EXsAE6EF+2VaNL+z8+OPP+7duzdeGRsOVRIkSMB3jcOWKVOmgBespQV1gzifPDb1nNuweGgqQ4YMrBzOcanI0UqWLFlQEsaAIO/iXJIjP6DUbwMw0ITNO8uDA5YJEyZwkqNeoUr5CgO9yutTXDh+CELrhVfzqDdzszwhHKHj0KFDO3bsqPY8HLASl6thMnbiUpXHOzCVzA4ZNEwl3MINUZFtPajyhSxQoAC7TzSAz87VohlKPBpxDhnbQsyN6G14Iy4SDalJEe7cRIOZEbHDciNNRIPN5MmTQV8TlpCNl3LIg4/BPVu0IZSC63pBY9FSlOYIZMuWDWxxQwi+yRrI5hX1Gu1fjdUrI5A32ULYaME1WP7VV199o/txNG5xSByqECOxMeIAnu+JRRtRRgYBogjlyPHl+Hj1+Q1vg7BTf5IT3urKnqVivBHXYLkamN00Xbp0hEOcXebPn9+usRjEFAJsmdjmEpBERlToZXAIbsVybcySEQT0CAjL9WhI3j0REJa757zKqPQICMv1aEjePREQlrvnvMqo9AgIy/VoSN5RCDhXO8Jy55oP6U1UICAsjwpUpU3nQkBY7lzzIb1xFAL8hVVrSliuQSEZt0Lgtdxf7lbzKYOxh0Bs9OX2MJFyd0NAWO5uMyrjMUdAWG6OiWjcDQFhubvNqIzHHAFhuTkmonE3BITl7jajrjCe6O6jsNwC4rfljnMLqLiwyh1Y/vnnn2tXvphMRTO549wEkVj56A4sd+zE7dold5w7FtGYb839We7h4REBmCdOnKi/ZS4CLbh9ldOnT8+Y4aR3opuAb4flV69e9ff379u3b4cOHaZNm6buENu6dau6Xalx48atW7fesWOHatSGfv78/1x5funSJZpt1KhRnz59fvjhB6ofPHjwq6++IqNk//79nTt3Jv/gwQPH3nFOm927d//xxx/JKOG9+/77j36gZ2h5Ytkd54w6XPKuE9+JbjIQOyxPlixZ/fr1x4wZM27cuCNHjhw/flzV3759e+7cuWfPnt2tW7dly5b9/vvvtvWshHj/Xnl+69atAQMGFClShOrt27dftGgRpUWLFg0KCvrrr79UO1Bf3Wgz2tF3nNN+pUqVeCMZhDfSH95OXolKceTsQVVeUnMEiOuYvg0bNmhF65zsTnStY2TssDx58uTvv/8+dkmTJs2RI4c28dmzZy9RokTixIlxeBUrVtyzZw82iDV9Wt2V5z/99BMrpHTp0t7e3h988EGTJk3gnIeHR5kyZXbv3k0joaGhR48eLVeuHF+S8+fPY4DyHcfdcc6r//jjj+DgYJrduXMnL2IFktcLHdYGq9dLXiEAaLg/lddSEMM3tWvX7sCBAy9fvvSKuTvRtS6pjB2W3717d+XKlZMnT16wYMGVK1e0/5oR9qv6pD4+Poox5K3p9XcdPnr0iCoYK0mZMiVhCfkqVargIQiKiB8KFiyYJEkSTk6ePn3q8DvOEyVKBNFZWryL9cnE8HYTYfUimhLXvnjxYrqnaSRjjkC+fPk8PZ3oTnSth7ZYDqeJmyFop06dmjdvrr9u8/79+1oTrGCNtdb0mjEZGlS0Jo+wQiA6Gdr39fXFy+7du1cxj0eKNut+PXr0wOvzOl5KFYRlgNsgY00ePnyoiuA0edrksWrVqrD8xIkTPL4f9rFCqRc4jYGmYTOqNHrqa6WSUQgwNVoGtFUeFnnG3J3oqg+2WB4SEkKs/Nlnn8WNGxdHrgXl1Dxz5gxBBZnr169v3LixQIEC5BFreoo0IdTBDO+IhvbXr19PoEweKV++PJSmTXw5j+xv8OjE/QoyUkfdcQ6zafn777/njbzIRO7cuUOYpFaavgiKs3PVayRvFwFwZpYxwx+REvdG553ovBGxxXL86BdffNGlSxd8+bx58/B/VFBSqFAhNqA9e/YcP348NhDXtl6VqpSoxs/Pj0MoAjg2ryVLlixVqpQqKlu2LOEKAbq2+qPojnNeV7lyZb4bvJG8Xog4WYH6C87J8+mA4pwL6S1jc35TFN6Jfgpg8T5sz6brrk5HGWGxxXIa5UCNN3FuOGTIEIKWatWqoUTw7v3794fiEyZMqFWrFholFvXwiUMVZaBSFvSyE3ZnAAAQAElEQVSUKVNmzpzJAUvt2rWVkpR1j2vndJK8kgxRecd54cKFeaN6kZYqNuOz9TJ37lyhuAYRGZiA+xvqlHei0z0TscNyE2vtkeBBy+sz1vR6myjKs0XurfuxCG28iH0t4Uq9evUs2nDAAtf1gsaipSgjj4BD7kS33Y0Istx2ozFSyh93dFecf8NBu7VuECZ17NixevXqfFKs2Yg+2hBwyJ3otnsbEZabRyDqHdb0qtR50m+//ZYdrTVH7jz9lJ44CoGIsNxR75Z2BIHoQUBYHj6cxdoVERCWu+KsSZ/Dh4CwPHx4ibUrIiAsd8VZkz6HDwFhefjwEmtXREBY7oqzFpv7HJGxC8sjgprUcS0EhOWuNV/SW6MIaP/BHxWE5YAg4oYIvJb7y91wVmVI1hEQX24dGylxFwSE5Y6cSWnLOREQljvnvEivHImAsNyRaEpbzomAsNw550V65UgEhOWORFPack4EYjvLb8tV5c5JzAj2ynK1qGW5jZvFLXfHntZGg3JVuT3wYm951LLcNq7BwcG//fabbZsoLd0lV5VHKb5O03hMsvzQoUOOZbl2g1m44J0oV5WHC69/jd3n/vJBgwb98MMP/44rTp06de7evcvj2LFj16xZ4+/vX69eva5du164cAEl8vLly8DAwI4dOw4dOnTTpk3x48dHiVw1uwf94MGDq1at2rlzZ9++fTdu3IjNA7mqHBRcR951m/vLbWAOiWvWrLlgwYJatWoNGTLk0aNHGM+dOzc0NDQgIACWE5A8efIEJWJ+D3qxYsUKFy5cvnz5MWPGVK9eHZvRclU5KLiIEOy5z/3lNjAvVarUhx9+6OXlVaZMmaxZs6rLQffs2dOwYUMVOdStW1erntzKPeiaAc7e7a8q1wbrBply5cq5z/3lNuYD4mqlPmFXmL958+b+/fua3tvbW7v9njjH4j3oWgv37t17KleVa3C4ZsYl7y8Hak9PT+2/0/077IdSCYRWGVJOnSE6LpyUPBoE1hKmk6EFa/egszAwQHx9fVOmTLlZ94vOq8r1m2A2o3JVOTMSAYEAqhYZbWaZfVik9CotWrRopbAfh78ZM2ZMnDgxDpEdILFr6dKllQ2piRkaJG7cuKThFTtnLOnSpTt+/DgdpV21RySjhF3p9evXye/bt+/MmTN58+YlX6hQodWrV6sRLl26FA1i7R50op1z584pY7YySZIkWbZsmXokjc6ryvOY/UNZaLp3707nRSKJANPq1PeXM7zatWvfuHGjRYsWOGMWaObMmVEqYalNnjy5Z8+e27dvHzhwYKpUqdCzOq9cudK8efPBgwcnSpQoU6ZMKHHSX1i6B52AnkimVatW8+fPx4zVzDFLhw4dqlat2rp16zt37qC02CB6c0mYMGHBggXbtWvHR+DPP/+kS5pNZbmqXMPCQRnOHlasWMF3myM1Zs1Gq7hnjiiYYjwaZpw3cD4xXXcxOT701atXnFjQFPpTp6L9/nJ8+fjx4xcuXMjRIbtJupI6dWr6ilDESSKlI0aMwIWjQSA0fcV++PDh6u7zFClSoFd5qnMawxqoFnYPOl+radOmzZs3j1WETQa5qhwUXESYQRe8vzz84BJUhL+SY2rwDdHdVN5brip3DKwx1IrcX24ZeLmq3DIurqklOujUqRN/SUSIV7NkyeLwcdjZfVp7H2E6fxKyVuo8ermq3HnmIgZ7EkGWx2CP5dWCQHgREJaHFzGxdz0EhOXOMmfSj6hDQFgeddhKy86CgLDcWWZC+hF1CAjLow5badlZEBCWO8tMSD+iDgFhedRhKy07CwLGWO4svZV+CAJGEdD/577CcqOoiZ1rIfBa7i93rQmT3kYSAfHlkQRQqrsAAsJyF5gk6WIkERCWRxLAaKour4kMAsLyyKAndV0DAWG5a8yT9DIyCAjLI4Oe1HUNBGIdy29bubAcvWvMmPQy/AiEj+U2rg/n1Vu3bh01ahQZR8np06fbt29vsbUbN240atTIYpEN5cSJE/v160dqLuj1dw/ZaESKXA6B8LHc8vAMa2HtrVu3DJs73hAeN27ceK6lX/ny5Xft2uX4V0qLToBAtLJ83bp16i6hGBx42rRpcdsSn0R+CvBZM2bMsNvOkSNHYnzS7bD8pZX7yF+/fv3999/36dOna9euy5cvN7+b5cKFCyNHjuzZs+fw4cMvX74MFsuWLTt8+DC49O3bF4DQmNugDA4OHjJkSLdu3UaPHq2uWUJpURImTBgQENCsWbMGDRrMmjWLLj1+/LhWrVraVU+hoaGEWPr7HFU7/v7+adOmVXlJI4zAu25zfznfdrgCmUzuI1+6dOnJkyeJwpETJ06sXLlSD9bDhw/9/PyqVq06fvz4SpUq9e/f/+nTpw0bNkyfPj1x9pgxY3LlymXRhtUybNiwYsWKffvtt7169Tp+/Li+WZP83bt3kyVLNnny5LFjx167do1V5O3t/dlnn23btk1Z7tmzJ3/+/D4+PupRSxcvXqzlJRMxBIju3Of+cogCOz08PMCiru4+8s2bN+NE48WLB7Fq1Khx4MABDDTZv39/jhw58uXLh6Zw4cKpU6dmSZDXi0UbyBoUFMTCwDJ+/PjVwi6aI29RPD096Rskzpw5MztRuopZlSpVdu7cSQbZvXs30TYZE0mTJo2JRh7Di4D73F+OZ+Vzb34fOfqQkJAePXrgrRFiEi1IUGARdRw9epQiJUQmJgaYWbShWe112Pj6+pJak8SJE7MSVCm1WB7kc+fOTehCqHPz5k12uqwxlCaS57833OLaEfN1aFLLmR+dpG/4NVxP3LhxkyZNSvSoekXQmyhRIpUnPXPmzNWrV/nebt++PWXKlIoYf//9N0Xw6sWLF2QQi2bo8Z5EqmSYfVKDYisu9/DwwFPevn1btUXUQY/JKz2hMB5dCYENek1gZ+nSpVWRSitUqKBKGYnKWLRBSRzy6tUrZcMaUxmLKTiq/lAKWHSVDMIXAHeOlC1blq8NGhNp1aqVNiiKoDjC8Qv+iUeRCCMAMVRdMtpE43SgvtKrtKiz3V9eyNJ95PS1ePHisBzek0fUPypERgkeFF9+7Ngx9YiZIq6Xl9fZs2eV0qJNxowZISurHBuWNWcyZGzI2rVrKQXH1atXFyhQgDwCWX/++edDhw5VrFiRR3Nh4Wm7T43u3bt3N/Hx5hVFEwEEXOD+coJv8/vIGSruMHv27GwxcZzE6xyeoNSEQHzgwIFsUIibCVoGDRqkWE5+w4YN1GUBWLTBB3BoM2fOnC+//JL9Lh8ErU3zDN9HYpIOHTpA0HTp0jVv3lzZsCXNmzcv38333ntPabSUw3L+HkQH9EIpLWhfGx5F7CLgVveXEzkFBgaa30dOVMSGD8Yw2lWrVhEbgEvlypXhPRnk448/7t27N+ceOM5x48YlSJAAJaylKcIbjj54tGiDcsWKFVOnTuUgkgY5ecTSXDJkyIBB586dp0+f/t1337Vu3ZpYUDNjtVjcd0JljhHhtCY80kP0Wl3JGEEA7xYr7i83goWjbFgwepk5c6aNltlHsvu0RlxiFSITvdhoSoqiAQG3uL/cETh9899fu3btLLZKANOyZUvO4wl7+NpYtBGlsyFA7NrJOe8vdzakVH+IzufNm7do0SIVESmlpIKArZNEQUcQcA8EhOXuMY8yClsICMttoSNl7oGAsNw95tHWKKRMWC4ccH8EhOXuP8cyQmG5cMD9ERCWu/8cywiF5cIB90RA/5/7xjTL3RNhGVXMI/Ba7i+P+UmQHkQjAuLLoxFseVUMISAsjyHg5bXRiICwPBrBllfFEALC8hgC3mleGxs6IiyPDbPsdGMMDQ0NisQvJCTkwYMHxkclLDeOlVg6BoG/w36RaevVq1cvwn4GG4lFLP/Nys8gUmLmKAT0J9mRaROeG6zu7Cz//PPP7927Z3AwNsxatWo10cqPIhsVpShKETh9+vS+ffv0r0BDLIOGdM2aNaTklVCEqHy40mhleXBwMP40XP0Lr7HFV/DS27dvz7Xy4xUYkIpEPwJnzpyZOXOmnrv79++/e/cuPSGF5fo1gDFCUXglWll+6NCh8PEpvKOJE8faK9KmTQvR8ebhb9Kpa1i8HTwwMPDcuXMO6Tf7vIMHDzqkKWuNlChRAqLrfbZmmStXLlhusUizMZKxz/INGzb06NGjWrVqbdq0ocWtW7fOnz9/yZIlDRo0oHNoLphdVY4S9AcMGNCrV6/OnTtTBQ1grVq1aufOnX379t24cSMatslTp07t2bNnnz59KEWDvLRyYzpFJmLkFfoqEL179+56jRvkf/75Z+1GQm041atXz5gxo/YYmcydO3cuXrwYmRbs1s2ZMydEh83mlqlSpaJI0cy81LjGDsvnzZt34sSJrl27wsuxY8eqdnfs2BEvXrxZs2a1a9fO4jXkmKVIkQL6jhs3jhTX8vz582LFihUuXLh8+fJjxoxhGrAZPXp0kiRJxo8fT/vYqM8WYQXHTOY3pmNvIkZeoa+CL6fneo1L5588eQJot27dWrFiBRnl8JgO8mB448YNNbpt27ahmT17Nr5p5cqVAIuefdv69evRLFq0SLuVG6+B85o2bRoze/36dcz27t3LvF++fJkWtmzZggZBSSMIPot20AwbNoyWv/nmG3oCI0+dOnXlyhX8F1VoirfgzjCzIVAZlqshmJjVrl2b0IVSE324Hu2wHFo0adLkvffe8/DwSJkypWoap4gjT5YsGY9EUTksXVWeNWtWWIhBlixZkidPjksgr5erV6+eP3+exlG+8847JUuWVO58z549DRs25HXo6+puTOfRROy+wsTezR69vLw6duzILLRo0YIMbo8B8kg+c+bM5DXJnTs3n2I28fXq1eN8AyfCF5U5pSL4Hz58+NGjRxhDypo1a/7f//1flSpV1H+2WqpUqbJlyxI20CZKbJAPP/ywQ4cOnTp1ypAhA+2gwRgupkuXDsvixYurC19Zfji1tm3bFilSxPatrpCbzkN0Vgh5GjQRnCk0s1hkYmnt0RbL+RQSlmnk1ppQ9FWP7PaOWrqqHAbjJyZNmkT69OlTmlL2Wgro6IG1atiPfQYrHrP79++zKpSZt7c3Hw2VN0/tvsKkCotTf60crn1x2A8zikhdUQjwEuluB7c4BNYDMAImpTASorOHw8vg5rfrLhFnJYAHfg2b9OnTY4zgrdV94eSVsCRwz2vXrsVz4eZRYhA37MeL+F/aRwmkiifZs2dnptDYFtaJNZ/N4iGqwZ2zGGw3Yq3UFstxqD4+PhDdWmX0vr6+pc2uKgdBvmKFChXq0qVL06ZNQQFLJfBYZajI+tms+xH9qzfCP2XDMmAWVd4kNfIKkypsfPW7T/wQk4pgxpSQuqJAKUgZgZ6bXCJOC/nz58f1Mi9Lly6FUmjixIlj0j6+iRgG31SrVi1cBn+dUWbmqdYrWmBazQ3MNX5+frzXos9mDVgrMm/HXGOL5VgTTBOrPX78A+M6uAAAEABJREFUmDycIzURvkr48mP/vaqc/Si8YRHDaToHNKoWa529P0oe3333XYLyZcuWqUdS9RbWxurVq3nEBrhJLYqRV5hUzJMnj/nuk36aK00qOvMjGCpaWJwdaz0nyNSmjM0laLNxImLEExcsWJC9019//aXqJk2aVE3fs2fP4OvNmzfTpEmjfCpxvLKxmF67dg3fTNHvv/8OE8jYFZolblHbM3Njivjgm+uNaOywnNCNP8cShRNWtG/f3rzF1KlTDxxoelU5oRg95nSlZcuWfNQ+/fRTVbFMmTKMnL/C8MlDM2jQIKIUgjwab926NV9AlNZuTKdILwZfoapAZTK8Vy94cfRQHPZT6qLCh3TBggXgiftgCGDIThHMORnjY4XGosBjovPp06djrMJo+M1cjBgxgm0l9MVVq4rZsmUjRGETCcMgOnzFSbOXJRBVq0uZmafstQjHObFgOfGnPXMDpSEUQVSeFJ+NQCrypMWLFyejBD0But5Y6Y2kdljOUib22LRpE5HFwoULabFy5cocEZLR5GOzq8oTJ07cv3//KVOmgD6spYVMmTJhz/EWW3jObVg8PGbIkIGVM2PGDBrnWCBLliwoCWOAnncNHz68cePGzIQK7yjSi8FXqCqw2d/fH0LrBQ0vdWmKM7q8efP27t0bPMnwiKNlpzh48GBGCpXRVKpUqUCBAjgdoOaRXSM71AQJEkAa/AvGbCuJKGA5GfwOBngcFcRjjyU2RDKNGjUC8/jx4+PyOFMmEK1Tpw6ODBsOgkmZLM4DWAbscXnEkloU4VlgERqLQsyN6IvoGL1FQ2pShDs30WBmROyw3EgT0WAzefJk5lITllB4XwrRIbSJhLcRsXcIAiwAh7TDV8VgO67B8q+++orjWE04aDc4PDGLEQQ4plSfDotvh512z4UsVtQrWSrGG3ENluuH97+85FwTAaIjNs0EJJER7bjZCAbCciMoiY1rIyAsd+35k94bQUBYbgQlsXFtBITlrj1/0nsjCAjLjaAkNpYRcBWtsNxVZkr6GXEEhOURx05qugoCwnJXmSnpZ8QREJZHHDup6cwI8BdWrXvCcg0KybgVAq9jxf3lbjVlMphIISC+PFLwSWWXQEBY7hLTJJ2MFALC8kjBJ5VdAgFhuUtMk3QyUggIyyMFn1S2gYCNolC5v9wGOlLkBgj8HfaLzEBeyf3lBuH7zcrPYHUxizAC+pPsCDdCxRcvXpAakaiNWD7/3DG3j2sjcVSDrVq1mmjlR5H2OslENQKn3e/+chPIguU6cxNEYt/jGfe7v9xkEq3dNW5iFplHa69I6y7XmR85cuTOnTsmEAXK/eX/RcROxDJo0KAffvhBq1KnTp27Yf9OwNixY9esWePv71+vXr2uXbteuHBB2by0cvv41atXMe7bt2+HDh2mTZv25s2bgwcProrB68zjxIHo3V3/OnO5v1wRz3Zqh+U2Km/atKlmzZoLFiyoVavWkCFDHoXdDjx37lwOiQICAoYOHUpA8uTJE9VCsmTJ6tevP2bMmHHjxuF+jh8/XiymrzOnYzt27CB1UQFbfPYtub/cwPxFnOWlSpX68MMPvby8ypQpkzVr1qNHj/I6a7ePJ0+e/P3338cgadKkOXLk0G61RaMEZ3/+/PkmTZrw+E60XGdu3gde7UIC8h3l/nJjExZxlkNc7RU+Pj54buIQa7ePE+esXLly8uTJ+P4rV66YnyXdu3fv6dOnfByqhv0Ihx48eGCjQe3VWoZFsmjRIhs3pmuWKkPEUqFCBZUnhfSLw37kXUgIEe1eMcV6kPvLbc2pp6enxsiws/y/NWsIreWhCET38PAgJa/0sJY5IE8Lffr0SZEiRadOnZo3b65uBkWPwGNSxNfXN2XKlJt1vxi8zjxPnjx0ySUEbJmjCHRV7i//H2jp0qUjhgZKVBvD/skrMkrYlap/fWbfvn2cB+XNmxe9xdvHQ0JCgoKCPvvss7hx4+LIaRBLBB9z7tw5RXS5zhxAIiBJkiQBWyriU0gNCkHjsX+vnI+p+8vNu5oq7N/K4gTdvAhNiRIl+MKTiYDYiVhq165948aNFi1a4Ixx1fp/sAZnQATSs2fP7du3Dxw4kC7y+mbNmsFjHPbgwYP5kiq3jZP+4osvunTpgi+fN28eIQmWCAE9kQx/hZk/fz6PnOcQpXAIg0HrKL7OnHCF9+qFaAUlpy4u5MgBTe4vBwS7Yofl+PLx48cvXLiQo8O6detyeJI6dWrVKEUcDlI6YsQIXLhSQmg2/tib3D7eOOwmcqpzGsMaqFatGvYxeJ05bDYRxsIBkWtRHAz5hPaW+8sBwqbYYbmNuirSsGEQdUV8Q5haTeQ686iDOipajh8/vkOaNb4hiTjLHdLRiDUi15lHDLdoq+Um95cTpnPqF22oyYvcCQEOIdg0s5GLjOgPsu2C45K+3O6oImsg9d0LAWG5e82njMYSAsJyS6iIzr0QEJa713zKaCwhICy3hIro3AsBYbl7zae7jMax4xCWOxZPac0ZERCWO+OsSJ8ci4Cw3LF4SmvOgoD+7//CcmeZFemHYxFQ/7m4alNYrnCQ1J0REJaHf3alhqshICx3tRmT/oYfAWF5+DGTGq6GgLDc1WZM+ht+BITl4cdMargaAsJyV5sx6W+cOOHFQFj+H8Ss3Gn+23+M5MHVEHAHlsul5q7GuujurzuwPLyYBVu6N/122G+ulV/atGlx8+F9kdg7CQKxkeXWLjVnSqB6v379yJgLReZKt9Qccf070U3mxQ7Lr5rdO079rVu3BgQEBAYGNm7cuHXr1tr9yDb08+fPX7JkSYMGDWbOnEkLly5d8vf3b9SoUZ8+fX744Qc0Bw8e/Oqrr8go2b9/f+fOnck/ePBg6tSpPXv2xBIbNMhLK7ekU2QiTNiAAQN69epFa3SPUhoxuTcdpSb4bDqmPcbOjBvciW4ycXZYbn7vuKq/ffv23Llzz549u1u3bsuWLfv9999t61kJ8eLFmzVrVrt27W7dugXzihQpQvX27dsvWrSI0qJFiwYFBf3111+qHaivLqQdPXp0kiRJxo8f37VrV9aVukSPsMLiLemqrj5NkSIFK2TcuHGkVH/+/Hkxs3vT9fbk6QxpxMWVaz558gSUmKAVK1aQYUYYzcOHD8mD+Y0bN3hEtm3bhobpw3mtXLkyICAA5YsXL9avX4+GCT1w4AAaBC+Dd5s2bRpTr27V3Lt378aNGy9fvkwLW7ZswQZBSSMIDoh20AwbNoyWv/nmG3qCZzx16tSVK1fwd1ShKd6C+8PMoNhheXIr945nz569RIkSiRMnzpMnT8WKFffs2aPeZ02Pj8SRs2Yw++mnn1ghpUuX9vb2/uCDD5o0aQKxPDw8ypQps3v3bgxg8NGjR8uVK8eX5Pz58xiglEvNASGqxcvLyz3uRDcByg7L7969y5KaPNn03nHYrzXkE3Z5uXq0psenKgPSR48eUYWMkpQpU6p1WaVKlV27dr1582bfvn0FCxbEhcf4peb0cHHYL/YE5QyZgDBRokRkbAjrgY8zfgobz7Drv8+cOYNXws1v375dm9Nq1aqBH14Mm/Tp02OM4K0TJkxIRhMogXteu3btnTt3cPPoMYgb9uNF/K/6z2jxlYpIOFPcH2YGxRbLaZpomHY7md07bn55uXqfNb0qVSkNKlqrR048AIV8pkyZfH19//jjD75fKlzhkSLdneabo/lSc6aHSULonuoSGbcX5h1SRmCYhJ2Vwn7NmjXLmDEjLeTPn79t27bM49KlS3FeaBCT9vFlxDA1a9asVasWIL969Qobi6L1ihb4+Fu0sai0xXJr947TEAuXoIIMwRZdLFCgAHnEmp4iTQh1MFMHc0R+BHMgo0rLly8Pp2kTX45GLjUHhOgXvqLMC+91gzvRGQVii+X4UYv3jlOtUKFCfJjY0rEvxAbiokSs6SnShKjGz89vxowZ7ETZvJYsWbJUqVKqtGzZsqx4AnRt1UbnpebsMfQ3mpOfOHEiX8nu3btTpHoYG1K2TAsWLCCEOHfuHOMlimCnSCCxYcOGnTt3orEoeCg2VNOnT8f47Nmz2BBp8NEeMWIE20q2obhqlEi2bNkIUdhErlmz5tmzZ4QfTDd7WbatanVhY1HYm61bt27s2LHHjh3jT4EWbeLEiWOut8VyrDkrpN/0Un/vOHoG0L9/fyg+YcIErffW9JUrV+ZQhVJNcuTIMWXKFPbODKx27dqaHi+Ca+d0UtNkyJCBcxiWBD6ebX6WLFkoYvkBpfkt6RTphc0xneRFTBjfULbtBEUY8DFl1z9v3rwWLVrwqAlsNhFOFXlprKI4aLj6negMwUTssNzEWntkj6jl9Rlrer1NFOXZIms3mpOB3+F9EW4bQptIeBsReydEIIIsd8KR8Ecljlc14aDdCTspXYowArbvRLfdbERYbh6BqHdY06tSSQWBmEIgIiyPqb7KewWBiCEgLI8YbhGtJfViAgFheUygLu+MXgSE5dGLt7wtJhAQlscE6vLO6EVAWB69eMvbYgIBYXlMoC7vjF4E9CyP3jfL2wSB6EJAWB5dSMt7ohcBT8//cft/uejtg7xNEIhaBF6/fq29QFiuQSEZt0VAWO62UysD0xAQlmtQOEFGuhA1CAjLowZXadWZEBCWO9NsSF+iBgFhedTgKq06EwLCcmeaDelL1CAQW1h++/bt36z8ogZYadWJEDDO8red/vzzz+/du/c2Z+n/tm7dOmrUKEslEdSdPn26ffv2EaysqwbFW7VqNdHSr1/YT2crWTdEIHwsjyQAsPbWrVuRbMR2dYuv2LlzZ4UKFeZa+eHibbcppa6OQLSyfN26dXfu3IlSyGy8YnHYL0rf7h6NH4lt95e/tHJT+OvXr7///vs+ffp07dp1+fLl5tewXLhwYeTIkT179hw+fPjly5eZ/mXLlh0+fHjGjBl9+/bF46Ixt0EZHBw8ZMiQbt26jR49+tSpU2isCYTu1atXly5dCDqUpfkr9HXLly+vrs/VKyVvjkCsu7+cj3xoaGhAQMDQoUPh35MnTxQoS5cuPXnyJFE4cuLEiZUrVyq9Sh8+fOjn51e1atXx48dXqlSpf//+T58+bdiwYfr06Ymzx4wZkytXLos2rJZhw4YVK1bs22+/hcHHjx9XDVpM33//fVbCpEmTsJ8zZw42Jq9Ao5fbYT+9RvImCDC/gYGBRJUrYtX95Xv27IE66n7RunXraqBs3ry5WbNm6m7fGjVqaLeyK4P9+/fnyJEjX758PBYuXDh16tQsCfJ6sWhz7dq1oKAgFgaW8ePHr1atGhlrkjt3bmwoLViwIAQmY1cMmtltJ2YMov6tXrHw/nI86/3795MnT67g9fb2htbk0YeEhPTo0QNvjRCTPHjwAL0meP2jR49SpITIxMQAS4s2NKu9DhtfX19Sa3Lw4MGZYb8NGzYQQVkz0/TqajjtEcYTqC9ZskTTSEYhQJgai+4vx+SWY9gAAA67SURBVIX7+PjABjV4og7GT17pZ82ahUdXQmCDXhPYWbp0aVWkUo44VCkrRGUs2qC8e/eudoM1a0wZm6fbtm1bs2YNn5d27dqZuHztFSa1doT9NCXnirAcndY3rSiWZ3AZ+v8XBONouOT95QyvUKFCq1evVrwhFkejpHjx4rAc3qvHR48eqYxKiVLw5ceOHVOPmCni8kFUd/6it2iTMWNG1tX27dsxePHiBftLMhaFdj766KMUKVJgtuXff54GS/0reNSEtQqbEU2jMjj47t27q7ykCoEkSZIQN5Jn4kgNCjGqNuMXL16EM8+fP+d7GzduXEJKtv7aPxqVNGlS9VeXZ8+esaJu3ryZJk2aVKlS8SKOd0itCQEtTpDS33//PXv27GQMip2TRILvK1euNG/efPDgwXzF1M3INM0fWXgNW0z8KA6VwxOUmhCIDxw4cNeuXcT0BC2DBg1SLCdPdEFd4LBow1eCQ5s5c+Z8+eWX7Hf5IGhtmmRq167966+/skNt06ZNzpw5Ibcy0L9CaUiBmENx3qsXNFDc398fAxE9AsAeu+4vt3ZTeOLEiRs1asRHf9OmTatWrSpbtiwwVa5cGd6TQT7++OPevXtztEfEMm7cuAQJEqAEvoULFxLe5M+fn0eLNijZ4E+dOpWDSBrk5BFLc2G9cQ5Dy8xHiRIl+LAoG5NXKGXatGl5KT5bL2iE4gofkzRv3rzMXYsWLchQhKPt2LEjbg708BdoOB4oUKAA3pcTMx47deqULFkyphjX06FDB4yrVKmCw8KLk8HHYdC6dWv2dRgjWGLTtm1bKASROEJo0KAB3qpp06Z16tTpHPYvYHJIjWXjxo2zZs2KP61Xrx6PWFKLIrwVHwQ0BsWOLzfYSpw4UWsI6Hphzxne90F0PLde0IS3EbF3UQRcg+XareQqw47TReGWbkcYgei+vzzCHZWKgkCMIOAavjxGoJGXug0CwnK3mUoZiFUEhOVWoXGxAumudQSE5daxkRJ3QUBY7i4zKeOwjoCw3Do2UuIuCAjL3WUmZRzWERCWW8dGStwFgehhubugJeNwHQT0//GwsNx15k16Gh4EXsv95eGBS2xdHgHx5S4/hTIAuwgIy+1CJAYuj4Cw3OWn0NAAYreRsDx2z3/sGL2wPHbMc+wepbA8ds9/7Bi987L8tpUbx9HHjqmRUToMASdl+cSJE/v160dqLuh/++03hwEgDcUCBCLC8j179thGJjg4ODxEtNAY1bt37z7X0q98+fK7du2yUEdUgoAVBMLN8qtXr27dutVKa/+oDx06BE3/eYjE/7Rq1Urik0jg5xpVnz17Nnr06Cjtqx2W//jjjyNGjOgT9oO7UPzbb7+9ePFi3759J02aRM+OHDkyYMCAXr16de7cWbH/4MGDq1at2rlzJzYbN27ERv/vtJw7d65NmzYo37x58/333w8dOlTdcX7lyhWUJoIrl1tTTDBxy8e4ceNG6bhssfzly5eExTB87Nixfn5+2bJly5QpU506dbJmzTpmzJguXbrQsxQpUkDTcePGkQYGBj5//rxYsWKFCxcmrsCmevXq2FgUnD0rBJaPHz8e3qdLl87cbPHixeZK0cQ4AqdPn9buCn706NHkyZPpUlBQEF4pICBg+vTpFy5cQIMQ3K5Zs2bhwoWzZs3aEnadJd5tx44dU6dOnTBhAsr79+9jhuzduxf+4DpDQkJ4NNgalkbEFstZYcmSJcMr0zMfH5+UKVOatwjjITr6LFmyJE+e3Pg/qEKt69ev//HHH9R95513EiZMSMZE0qRJY6KRR2dAIGfOnMyduiv00qVL2cMu5vT19a1Ro0anTp2IMzdv3hwaGqq6evny5QYNGrRt27Z06dJofvrpp3v37vHIvouKUAslXE+fPn3Hjh1z5Mjxyy+/oDHYGpZGxBbLPTw8WKb0qXnz5qNGjVLXjZo0ev78+UWLFrEESRm26rSJjcVHPgt8IrZt29aoUaOZM2e+ePHC3CxPnjx6Ja4dOXnypF4peQcgEM4mIEbevHnVvxRCHJs/7NbL169fHz58eN68efhv8rdu3VKtQlzlwhInTozm1KlTBQsWREMjJUuWhM0ocaYwngz+jo8DGVow0hqWRsQWy6nP65s1a8aXiIhCu5hTozJh+rBhwwoVKkT00rRpU7pOFSWaDY+enp50mgzCqiVVAtFZ0HynCMrV50zptRSvoN99QnGEUKdcuXKajWRiBIEiRYoQcEJlJjd16tT0Ye3atd7e3rClUqVKmTNn1twWEQGlmvCoLkDWNGRohBSB+ooqBlujihGxxXLicuJsWokXLx4fKbXIkiRJArmfhP0DQ4Rf7A5ZhXB63759eH2MES8vr3PnzqEkj/AxAhEyiNqPklEtkGE1Q3fVOI964cNH+0qj0d3f39/ExysDSaMTAdwfs7x+/fpSpUqp9964cSN37tyQmJklcFdK8xQiEQPz2aeIQIADFjLmYrA184oWNbZYznLs2rVrixYtOC1hbbHvpImPPvqIWLxdu3bsR1nQqVKl4nSlZcuWhF+ffvopBkiZMmUIb/DE8+fP55HM0qVLibr69++v7oBGee3atcaNGxPGsbvl0KZixYooNWHzysaXinqhVCgOCE4ifMMfPHjAmYTqT+XKlSE9H3x8k41rl4sWLUoVNqnEq0Q7ynOrFvSpwdb0VWzkbbGcQIpwAqZyWkKfGBUN4ddHjhxJ5ECkjgHEnTJlCjZ8qohe8MrYZMyYcdq0aYRorBAeYT8GNMWxKFuQ2bNno+QLwD5djZb21VcPvZImTZpAaOIZTXgEPvHiCh9nSJmL3r17az0h/sbZtW/fvl69eji+XLlyUYS/q1SpEhlNiEkqVKjAiRzeDc5AIQJd8soAH8pWlbzB1rA0IrZYbqR+1NkQq4CjXqLuXdKyeyPgvCz/F3f5X0EgsggIyyOLoNR3fgSE5c4/R9LDyCIgLI8sglLf+REQljv/HEkPI4uAsDyyCLp/fdcfobDc9edQRmAPAWG5PYSk3PUREJa7/hzKCOwhICy3h5CUuz4CwnLXn0MZgSUEPDw8NLWrs1wbiGQEAasICMutQiMFboOAsNxtplIGYhUBYblVaKTAbRAQlrvNVMpArCIgLLcKjRQYQsAVjITlrjBL0sfIISAsjxx+UtsVEHAWlt+2clv5b3KJsyvQyMn76BQsh8qtWrWaaOnXL+zn5CBK95wcgShk+R5715xr0Jw8ebJChQpzrfxw85qlZASBCCAQVSy/auCac5Pu4spx6iZKHiPBcmqLxDwCZ8+enTZtWiT7ceXKlcDAwIg1YoflY8eOXbVq1ZgxY+rVq/fVV1/BwpEjRzZs2LBt27YrV65Ur3z9+vX333/fp0+frl27Ll++/M2bN1Dc5JpzNP7+/n379u3QoQMDxkbV1aeNGzfO89/rP/WlknddBDJlymTjjm/j44ob0WvO7bCcHmzZsqVu3borVqwoWLDgsGHDsmfPPnPmzN69ey9cuFBd7bl06VJCjlFhvxMnTsB+RlWnTp2sumvOkyVLVr9+fVbLuHHjjhw5oq5LpXG94LMRvUbyro4AXhwHPHv27NWrV6uxhIaGLlu2bM6cOVOmTNm+fbvyd5cuXZo3bx682rx5s7ordN26dRs3bty2bRs+cefOnarus2fPMPvuu++o/uDBA6U0ktpnedmyZT/44AMPD49PPvkkUaJEkBXK5siRI0OGDIqU9KxZs2bx4sXz9vauUaPGgQMHzF+cPHny999/H33SpEmpqyryaCLW9CZm8ugqCDDXHTt2VJfCqT4TDsSPH79169ZffvmluhE/ODh4/fr1fMnbtWvn6+u7YcMGZQkZ2K2hhFEvX75EeevWrc8//5yQIWfOnJs2bUJjUOyzPEmSJKotvhd0QuVJeXzx4gVrMSQkpEePHlXDfsOHD7e4yO7evYuPnzx58oIFCwiwCHJowUQIVxBNCRyLFy9esmSJppGMGyCQN2/ex48fEwbzSSeP9zx16hQeMEGCBIyuQIECzDsZJF++fJ6entAMz0gVNDhWxUCKcP9oDIp9lttuiF76+PjMmjULj66EkxJVhQWgMnCaqD1FihSdOnVq3rw58YzSm6RweseOHZoSfisNC1pTSsbFEDDrLh98vvylSpViqzZhwgR1xbOKUrDFZ2u0gVpoEDJKSYZHhEctz6NdiSzLeUHx4sVhueouj+omcr4ADOPJkydocPZBQUGfffYZ6xJHbi0ob9KkiTmh8e7du3enERH3QAAXDkNSpUpVu3ZtQhfC9I8++gjHrG7KZ1+Hg7c20hs3bty8eZNS9oHsD8kYFAewnD/o8Eo/P79q1aqxTz18+DDvpuvsPgmq0BN+ffHFF126dOnUqRO7B0IbDPTy8ccfE4TRjl74ckFxTmb0lpJ3RQT4mHt6/sO0tGnTshnFiwcEBOD4UqdODT2ItgloOc+4d+8eWztrY8yfPz9RO+d+58+fN2eRtVro/3k3OYtCpFGzZk1VlDt3bvbFKk9KHg2ZxIkTN2rUiNNuNgTEW+xWUbIZ5cyRkIOjFx7ZW0yfPp2BDRkyhKCF9YBSE8VmfLZeiHyE4hpErpgh/Lh+/To9x1XjvMkgxKvdunVjI8fuU92IjzJLliwwhEgGYvDBRwPvCb7JILCCqPi9997j4K59+/ZwsmnTpl5eXhQZFDssN9hK5M1Y4nBdL2gi36y0EIMIEJlwIMhfTvi8l4vRfwrKWVgeg5Mhr44iBDgPIUbFc3P2R2QSRW8x0mxsZrkRfMTGHRAQlrvDLMoYbCMgLLeNj5S6MALambqw3IVnUbpuEAFhuUGgxMzFEMCRK6HfwnJAEIkhBKL4tYrlpMLyKEZamo85BOC3EmF5zE2CvDkqEVD/WQEs5yXCckAQcUME3rx54xn2g+ieL168ePny5at/fy/lJwi4JgKKwrhwKP38+fO4Yb+3FIfr5GE941JlKsVIRBBwIQQUb6ExArPjhf2gN8Lj2/9fjPj//hIkSECWVCRBAsHA9RCAvUgYw+PBbwSKx4kT5/8BAAD//xeE6fkAAAAGSURBVAMATzq4sLuU1H8AAAAASUVORK5CYII=;" parent="WIyWlLk6GJQsqaUBKTNV-1" vertex="1">
          <mxGeometry x="-697" y="265.86" width="187" height="389.14" as="geometry" />
        </mxCell>
        <mxCell id="k7IrvAcoIWXZrxDGukcp-70" style="edgeStyle=none;curved=1;rounded=0;orthogonalLoop=1;jettySize=auto;html=1;fontSize=12;startSize=8;endSize=8;" parent="WIyWlLk6GJQsqaUBKTNV-1" edge="1">
          <mxGeometry relative="1" as="geometry">
            <mxPoint x="-500" y="455" as="targetPoint" />
            <mxPoint x="-367.5" y="455" as="sourcePoint" />
          </mxGeometry>
        </mxCell>
        <mxCell id="iimxKHolQluQC7mrGDLt-61" value="BGCE&lt;div&gt;DB&lt;/div&gt;" style="shape=cylinder3;whiteSpace=wrap;html=1;boundedLbl=1;backgroundOutline=1;size=15;" parent="WIyWlLk6GJQsqaUBKTNV-1" vertex="1">
          <mxGeometry x="-427.5" y="415" width="60" height="80" as="geometry" />
        </mxCell>
        <mxCell id="k7IrvAcoIWXZrxDGukcp-2" value="no" style="text;html=1;align=center;verticalAlign=middle;whiteSpace=wrap;rounded=0;" parent="WIyWlLk6GJQsqaUBKTNV-1" vertex="1">
          <mxGeometry x="-150" y="295" width="60" height="30" as="geometry" />
        </mxCell>
        <mxCell id="k7IrvAcoIWXZrxDGukcp-3" value="get category from categories table by&amp;nbsp;&lt;span style=&quot;background-color: transparent; color: light-dark(rgb(0, 0, 0), rgb(255, 255, 255));&quot;&gt;the slug&lt;/span&gt;" style="rounded=1;whiteSpace=wrap;html=1;" parent="WIyWlLk6GJQsqaUBKTNV-1" vertex="1">
          <mxGeometry x="-77.5" y="295" width="165" height="60" as="geometry" />
        </mxCell>
        <mxCell id="k7IrvAcoIWXZrxDGukcp-49" style="edgeStyle=none;curved=1;rounded=0;orthogonalLoop=1;jettySize=auto;html=1;entryX=1;entryY=0.5;entryDx=0;entryDy=0;fontSize=12;startSize=8;endSize=8;" parent="WIyWlLk6GJQsqaUBKTNV-1" source="k7IrvAcoIWXZrxDGukcp-4" target="k7IrvAcoIWXZrxDGukcp-32" edge="1">
          <mxGeometry relative="1" as="geometry" />
        </mxCell>
        <mxCell id="k7IrvAcoIWXZrxDGukcp-4" value="record&amp;nbsp;&lt;div&gt;exists?&lt;/div&gt;" style="rhombus;whiteSpace=wrap;html=1;" parent="WIyWlLk6GJQsqaUBKTNV-1" vertex="1">
          <mxGeometry x="-35" y="415" width="80" height="80" as="geometry" />
        </mxCell>
        <mxCell id="k7IrvAcoIWXZrxDGukcp-5" style="edgeStyle=none;curved=1;rounded=0;orthogonalLoop=1;jettySize=auto;html=1;entryX=0.5;entryY=0;entryDx=0;entryDy=0;fontSize=12;startSize=8;endSize=8;" parent="WIyWlLk6GJQsqaUBKTNV-1" source="k7IrvAcoIWXZrxDGukcp-3" target="k7IrvAcoIWXZrxDGukcp-4" edge="1">
          <mxGeometry relative="1" as="geometry" />
        </mxCell>
        <mxCell id="k7IrvAcoIWXZrxDGukcp-23" style="edgeStyle=none;curved=1;rounded=0;orthogonalLoop=1;jettySize=auto;html=1;fontSize=12;startSize=8;endSize=8;exitX=0;exitY=0.5;exitDx=0;exitDy=0;" parent="WIyWlLk6GJQsqaUBKTNV-1" source="k7IrvAcoIWXZrxDGukcp-32" edge="1">
          <mxGeometry relative="1" as="geometry">
            <mxPoint x="-360" y="455" as="targetPoint" />
            <mxPoint x="-250" y="455" as="sourcePoint" />
          </mxGeometry>
        </mxCell>
        <mxCell id="k7IrvAcoIWXZrxDGukcp-20" value="no" style="text;html=1;align=center;verticalAlign=middle;whiteSpace=wrap;rounded=0;" parent="WIyWlLk6GJQsqaUBKTNV-1" vertex="1">
          <mxGeometry x="-107.5" y="425" width="60" height="30" as="geometry" />
        </mxCell>
        <mxCell id="k7IrvAcoIWXZrxDGukcp-22" value="categories table" style="text;html=1;align=center;verticalAlign=middle;whiteSpace=wrap;rounded=0;" parent="WIyWlLk6GJQsqaUBKTNV-1" vertex="1">
          <mxGeometry x="-653.5" y="655" width="100" height="30" as="geometry" />
        </mxCell>
        <mxCell id="k7IrvAcoIWXZrxDGukcp-55" style="edgeStyle=none;curved=1;rounded=0;orthogonalLoop=1;jettySize=auto;html=1;entryX=0;entryY=0.5;entryDx=0;entryDy=0;fontSize=12;startSize=8;endSize=8;" parent="WIyWlLk6GJQsqaUBKTNV-1" source="k7IrvAcoIWXZrxDGukcp-32" target="iimxKHolQluQC7mrGDLt-21" edge="1">
          <mxGeometry relative="1" as="geometry">
            <Array as="points">
              <mxPoint x="-180" y="605" />
            </Array>
          </mxGeometry>
        </mxCell>
        <mxCell id="k7IrvAcoIWXZrxDGukcp-32" value="create category&lt;div&gt;and cache&lt;/div&gt;" style="rounded=1;whiteSpace=wrap;html=1;" parent="WIyWlLk6GJQsqaUBKTNV-1" vertex="1">
          <mxGeometry x="-240" y="425" width="120" height="60" as="geometry" />
        </mxCell>
        <mxCell id="k7IrvAcoIWXZrxDGukcp-50" style="edgeStyle=none;curved=1;rounded=0;orthogonalLoop=1;jettySize=auto;html=1;entryX=0.446;entryY=0.033;entryDx=0;entryDy=0;entryPerimeter=0;fontSize=12;startSize=8;endSize=8;" parent="WIyWlLk6GJQsqaUBKTNV-1" source="k7IrvAcoIWXZrxDGukcp-4" target="iimxKHolQluQC7mrGDLt-21" edge="1">
          <mxGeometry relative="1" as="geometry" />
        </mxCell>
        <mxCell id="k7IrvAcoIWXZrxDGukcp-51" value="yes" style="text;html=1;align=center;verticalAlign=middle;whiteSpace=wrap;rounded=0;" parent="WIyWlLk6GJQsqaUBKTNV-1" vertex="1">
          <mxGeometry x="-10" y="505" width="60" height="30" as="geometry" />
        </mxCell>
        <mxCell id="k7IrvAcoIWXZrxDGukcp-52" style="edgeStyle=none;curved=1;rounded=0;orthogonalLoop=1;jettySize=auto;html=1;fontSize=12;startSize=8;endSize=8;" parent="WIyWlLk6GJQsqaUBKTNV-1" source="k7IrvAcoIWXZrxDGukcp-3" target="iimxKHolQluQC7mrGDLt-15" edge="1">
          <mxGeometry relative="1" as="geometry">
            <mxPoint x="200" y="385" as="targetPoint" />
            <Array as="points">
              <mxPoint x="170" y="325" />
            </Array>
          </mxGeometry>
        </mxCell>
        <mxCell id="k7IrvAcoIWXZrxDGukcp-57" value="&lt;br&gt;&lt;div&gt;Type: SET&lt;br&gt;&lt;div&gt;&lt;div&gt;&lt;b&gt;Key&lt;/b&gt;: category-slugs&amp;nbsp;&amp;lt;slug&amp;gt;&lt;/div&gt;&lt;div&gt;&lt;b&gt;sample:&amp;nbsp;&lt;/b&gt;&lt;span style=&quot;background-color: transparent;&quot;&gt;category:slugs = { &quot;golang-functions&quot;, &quot;python-basics&quot;, &quot;react-hooks&quot; }&lt;/span&gt;&lt;/div&gt;&lt;/div&gt;&lt;/div&gt;&lt;div&gt;&lt;span style=&quot;background-color: transparent; color: light-dark(rgb(0, 0, 0), rgb(237, 237, 237));&quot;&gt;&lt;br&gt;&lt;/span&gt;&lt;/div&gt;" style="shape=note;whiteSpace=wrap;html=1;backgroundOutline=1;fontColor=#000000;darkOpacity=0.05;fillColor=#FFF9B2;strokeColor=none;fillStyle=solid;direction=west;gradientDirection=north;gradientColor=#FFF2A1;shadow=1;size=20;pointerEvents=1;align=left;" parent="WIyWlLk6GJQsqaUBKTNV-1" vertex="1">
          <mxGeometry x="360" y="540" width="450" height="90" as="geometry" />
        </mxCell>
        <mxCell id="k7IrvAcoIWXZrxDGukcp-58" value="&lt;strong data-end=&quot;297&quot; data-start=&quot;289&quot;&gt;Key:&lt;/strong&gt; &lt;code data-end=&quot;350&quot; data-start=&quot;298&quot;&gt;category-uuid#8b97f6aa-310f-4a56-9bb8-2df57b728d91&lt;/code&gt;&lt;br data-end=&quot;353&quot; data-start=&quot;350&quot;&gt;&lt;strong data-end=&quot;362&quot; data-start=&quot;353&quot;&gt;Type:&lt;/strong&gt; STRING (JSON)&lt;br data-end=&quot;379&quot; data-start=&quot;376&quot;&gt;&lt;br&gt;&lt;strong data-end=&quot;389&quot; data-start=&quot;379&quot;&gt;Value:&lt;/strong&gt;&lt;div&gt;&lt;span data-end=&quot;389&quot; data-start=&quot;379&quot;&gt;&lt;div style=&quot;&quot;&gt;&lt;div style=&quot;&quot;&gt;{&lt;/div&gt;&lt;div style=&quot;&quot;&gt;&amp;nbsp; &quot;uuid&quot;: &quot;8b97f6aa-310f-4a56-9bb8-2df57b728d91&quot;,&lt;/div&gt;&lt;div style=&quot;&quot;&gt;&amp;nbsp; &quot;slug&quot;: &quot;golang-functions&quot;,&lt;/div&gt;&lt;div style=&quot;&quot;&gt;&amp;nbsp; &quot;label&quot;: &quot;Introduction to Functions&quot;,&lt;/div&gt;&lt;div style=&quot;&quot;&gt;&amp;nbsp; &quot;description&quot;: &quot;Learn how functions work in Go.&quot;,&lt;/div&gt;&lt;div style=&quot;&quot;&gt;&amp;nbsp; &quot;meta&quot;: { &quot;created_by&quot;: &quot;user123&quot;, &quot;created_at&quot;: &quot;2025-08-15T12:30:00Z&quot; },&lt;/div&gt;&lt;div style=&quot;&quot;&gt;&amp;nbsp; &quot;subcategories&quot;: [&quot;5a6f8c3d-21b0-4f9b-9f6a-1a2b3c4d5e6f&quot;],&lt;/div&gt;&lt;div style=&quot;&quot;&gt;&amp;nbsp; &quot;top_posts_key&quot;: &quot;category:topposts#8b97f6aa-310f-4a56-9bb8-2df57b728d91&quot;&lt;/div&gt;&lt;div style=&quot;&quot;&gt;}&lt;/div&gt;&lt;div style=&quot;&quot;&gt;&lt;br&gt;&lt;/div&gt;&lt;/div&gt;&lt;div style=&quot;&quot;&gt;&lt;span style=&quot;font-weight: bold;&quot;&gt;N.B: &lt;/span&gt;Admin can send sub categories while creating a category as they are loosly coupled! or sub categories can be empty.&lt;/div&gt;&lt;/span&gt;&lt;/div&gt;" style="shape=note;whiteSpace=wrap;html=1;backgroundOutline=1;fontColor=#000000;darkOpacity=0.05;fillColor=#FFF9B2;strokeColor=none;fillStyle=solid;direction=west;gradientDirection=north;gradientColor=#FFF2A1;shadow=1;size=20;pointerEvents=1;align=left;" parent="WIyWlLk6GJQsqaUBKTNV-1" vertex="1">
          <mxGeometry x="310" y="655" width="450" height="240" as="geometry" />
        </mxCell>
        <mxCell id="k7IrvAcoIWXZrxDGukcp-61" value="category:topposts#&amp;lt;uuid&amp;gt;" style="text;whiteSpace=wrap;html=1;" parent="WIyWlLk6GJQsqaUBKTNV-1" vertex="1">
          <mxGeometry x="-240" y="943.86" width="170" height="40" as="geometry" />
        </mxCell>
        <mxCell id="k7IrvAcoIWXZrxDGukcp-62" value="" style="image;sketch=0;aspect=fixed;html=1;points=[];align=center;fontSize=12;image=img/lib/mscae/Cache_Redis_Product.svg;" parent="WIyWlLk6GJQsqaUBKTNV-1" vertex="1">
          <mxGeometry x="-205" y="764" width="50" height="42" as="geometry" />
        </mxCell>
        <mxCell id="k7IrvAcoIWXZrxDGukcp-64" value="key: category-uuid# category&lt;div&gt;primary key&lt;/div&gt;" style="text;html=1;align=center;verticalAlign=middle;whiteSpace=wrap;rounded=0;" parent="WIyWlLk6GJQsqaUBKTNV-1" vertex="1">
          <mxGeometry x="-285" y="804.14" width="200" height="30" as="geometry" />
        </mxCell>
        <mxCell id="k7IrvAcoIWXZrxDGukcp-66" value="" style="image;sketch=0;aspect=fixed;html=1;points=[];align=center;fontSize=12;image=img/lib/mscae/Cache_Redis_Product.svg;" parent="WIyWlLk6GJQsqaUBKTNV-1" vertex="1">
          <mxGeometry x="-190" y="901.86" width="50" height="42" as="geometry" />
        </mxCell>
        <mxCell id="k7IrvAcoIWXZrxDGukcp-68" value="&lt;br&gt;&lt;div&gt;&lt;b&gt;Type&lt;/b&gt;: string&lt;br&gt;&lt;div&gt;&lt;div&gt;&lt;b&gt;Key&lt;/b&gt;: category-uuid#&lt;span style=&quot;background-color: transparent; color: light-dark(rgb(0, 0, 0), rgb(237, 237, 237));&quot;&gt;8b97f6aa-310f-4a56-9bb8-2df57b728d91&lt;/span&gt;&lt;/div&gt;&lt;div&gt;&lt;b&gt;Value&lt;/b&gt;: 1&lt;/div&gt;&lt;/div&gt;&lt;/div&gt;" style="shape=note;whiteSpace=wrap;html=1;backgroundOutline=1;fontColor=#000000;darkOpacity=0.05;fillColor=#FFF9B2;strokeColor=none;fillStyle=solid;direction=west;gradientDirection=north;gradientColor=#FFF2A1;shadow=1;size=20;pointerEvents=1;align=left;" parent="WIyWlLk6GJQsqaUBKTNV-1" vertex="1">
          <mxGeometry x="-540" y="710" width="330" height="90" as="geometry" />
        </mxCell>
        <mxCell id="k7IrvAcoIWXZrxDGukcp-69" value="&lt;p style=&quot;line-height: 110%;&quot; data-end=&quot;928&quot; data-start=&quot;908&quot;&gt;&lt;strong style=&quot;background-color: transparent; color: light-dark(rgb(0, 0, 0), rgb(237, 237, 237));&quot; data-end=&quot;942&quot; data-start=&quot;934&quot;&gt;Key:&lt;/strong&gt;&lt;span style=&quot;background-color: transparent; color: light-dark(rgb(0, 0, 0), rgb(237, 237, 237));&quot;&gt; &lt;/span&gt;&lt;code style=&quot;background-color: transparent; color: light-dark(rgb(0, 0, 0), rgb(237, 237, 237));&quot; data-end=&quot;969&quot; data-start=&quot;943&quot;&gt;category:topposts#&amp;lt;category-uuid&amp;gt;&lt;/code&gt;&lt;br&gt;&lt;strong style=&quot;background-color: transparent; color: light-dark(rgb(0, 0, 0), rgb(237, 237, 237));&quot; data-end=&quot;986&quot; data-start=&quot;977&quot;&gt;Type:&lt;/strong&gt;&lt;span style=&quot;background-color: transparent; color: light-dark(rgb(0, 0, 0), rgb(237, 237, 237));&quot;&gt; ZSET&lt;/span&gt;&lt;br&gt;&lt;strong style=&quot;background-color: transparent; color: light-dark(rgb(0, 0, 0), rgb(237, 237, 237));&quot; data-end=&quot;1009&quot; data-start=&quot;999&quot;&gt;Value:&lt;/strong&gt;&lt;span style=&quot;background-color: transparent; color: light-dark(rgb(0, 0, 0), rgb(237, 237, 237));&quot;&gt; empty initially, updated later via cron or admin&lt;/span&gt;&lt;/p&gt;" style="shape=note;whiteSpace=wrap;html=1;backgroundOutline=1;fontColor=#000000;darkOpacity=0.05;fillColor=#FFF9B2;strokeColor=none;fillStyle=solid;direction=west;gradientDirection=north;gradientColor=#FFF2A1;shadow=1;size=20;pointerEvents=1;align=left;" parent="WIyWlLk6GJQsqaUBKTNV-1" vertex="1">
          <mxGeometry x="-520" y="880" width="320" height="63.86" as="geometry" />
        </mxCell>
        <mxCell id="k7IrvAcoIWXZrxDGukcp-72" style="edgeStyle=none;curved=1;rounded=0;orthogonalLoop=1;jettySize=auto;html=1;fontSize=12;startSize=8;endSize=8;" parent="WIyWlLk6GJQsqaUBKTNV-1" source="k7IrvAcoIWXZrxDGukcp-71" edge="1">
          <mxGeometry relative="1" as="geometry">
            <mxPoint x="-130" y="910" as="targetPoint" />
          </mxGeometry>
        </mxCell>
        <mxCell id="k7IrvAcoIWXZrxDGukcp-75" value="" style="edgeStyle=none;curved=1;rounded=0;orthogonalLoop=1;jettySize=auto;html=1;fontSize=12;startSize=8;endSize=8;" parent="WIyWlLk6GJQsqaUBKTNV-1" source="k7IrvAcoIWXZrxDGukcp-71" target="k7IrvAcoIWXZrxDGukcp-74" edge="1">
          <mxGeometry relative="1" as="geometry" />
        </mxCell>
        <mxCell id="k7IrvAcoIWXZrxDGukcp-71" value="store category top post with uuid with empty ZSET" style="rounded=1;whiteSpace=wrap;html=1;" parent="WIyWlLk6GJQsqaUBKTNV-1" vertex="1">
          <mxGeometry x="-60" y="880" width="150" height="60" as="geometry" />
        </mxCell>
        <mxCell id="k7IrvAcoIWXZrxDGukcp-74" value="send response:&lt;div&gt;successful&lt;/div&gt;&lt;div&gt;status 201&lt;/div&gt;" style="whiteSpace=wrap;html=1;rounded=1;" parent="WIyWlLk6GJQsqaUBKTNV-1" vertex="1">
          <mxGeometry x="-45" y="983.86" width="120" height="60" as="geometry" />
        </mxCell>
      </root>
    </mxGraphModel>
  </diagram>
</mxfile>
